G04 ================== begin FILE IDENTIFICATION RECORD ==================*
G04 Layout Name:  D:/Project/Circuit/ORCAD/KPRD/04v1/pcb/KPRD_04v1.brd*
G04 Film Name:    BOARD*
G04 File Format:  Gerber RS274X*
G04 File Origin:  Cadence Allegro 16.6-S018*
G04 Origin Date:  Sat Nov 09 13:40:19 2013*
G04 *
G04 Layer:  BOARD GEOMETRY/NCROUTE_PATH*
G04 Layer:  BOARD GEOMETRY/OUTLINE*
G04 *
G04 Offset:    (0.000 0.000)*
G04 Mirror:    No*
G04 Mode:      Positive*
G04 Rotation:  0*
G04 FullContactRelief:  No*
G04 UndefLineWidth:     0.250*
G04 ================== end FILE IDENTIFICATION RECORD ====================*
%FSLAX34Y34*MOMM*%
%IR0*IPPOS*OFA0.00000B0.00000*MIA0B0*SFA1.00000B1.00000*%
%ADD10C,.25*%
G75*
%LPD*%
G75*
G54D10*
G01X-150Y590D02*
Y2329770D01*
X1028550D01*
Y590D01*
X-150D01*
G01X762560Y52190D02*
X782560D01*
G01X748560Y66190D02*
G02X762560Y80190I14000J0D01*
G01X782560D01*
G03Y90190I0J5000D01*
G01X748560Y66190D02*
G03X762560Y52190I14000J0D01*
G01X782560D02*
G02Y42190I0J-5000D01*
G01X762560D02*
X782560D01*
G01X748560Y66190D02*
G02X762560Y80190I14000J0D01*
G01Y42190D02*
G02Y90190I0J24000D01*
G01X748560Y66190D02*
G03X762560Y52190I14000J0D01*
G01X782560Y90190D02*
G02Y80190I0J-5000D01*
G01Y52190D02*
G02Y42190I0J-5000D01*
G01X762560Y90190D02*
X782560D01*
G01X761260Y110280D02*
X782260D01*
G01X761260Y120280D02*
X782260D01*
G01X761260Y148280D02*
X782260D01*
G01X762260Y110280D02*
G02Y158280I0J24000D01*
G01X748260Y134280D02*
G02X762260Y148280I14000J0D01*
G01X748260Y134280D02*
G03X762260Y120280I14000J0D01*
G01X782260Y158280D02*
G02Y148280I0J-5000D01*
G01Y120280D02*
G02Y110280I0J-5000D01*
G01X761260D02*
X782260D01*
G01X761260Y120280D02*
X782260D01*
G01X761260Y148280D02*
X782260D01*
G01X762260Y110280D02*
G02Y158280I0J24000D01*
G01X748260Y134280D02*
G02X762260Y148280I14000J0D01*
G01X748260Y134280D02*
G03X762260Y120280I14000J0D01*
G01X782260Y158280D02*
G02Y148280I0J-5000D01*
G01Y120280D02*
G02Y110280I0J-5000D01*
G01X761260Y158280D02*
X782260D01*
G01X761280Y181830D02*
X782280D01*
G01X761280Y191830D02*
X782280D01*
G01X748280Y205830D02*
G03X762280Y191830I14000J0D01*
G01X748280Y205830D02*
G02X762280Y219830I14000J0D01*
G01Y181830D02*
G02Y229830I0J24000D01*
G01X782280Y191830D02*
G02Y181830I0J-5000D01*
G01X761260Y158280D02*
X782260D01*
G01X761280Y181830D02*
X782280D01*
G01X761280Y191830D02*
X782280D01*
G01X748280Y205830D02*
G03X762280Y191830I14000J0D01*
G01X748280Y205830D02*
G02X762280Y219830I14000J0D01*
G01Y181830D02*
G02Y229830I0J24000D01*
G01X782280Y191830D02*
G02Y181830I0J-5000D01*
G01X761280Y219830D02*
X782280D01*
G01X761280Y229830D02*
X782280D01*
G01X760980Y259920D02*
X781980D01*
G01X760980Y249920D02*
X781980D01*
G01X747980Y273920D02*
G03X761980Y259920I14000J0D01*
G01X747980Y273920D02*
G02X761980Y287920I14000J0D01*
G01Y249920D02*
G02Y297920I0J24000D01*
G01X781980Y259920D02*
G02Y249920I0J-5000D01*
G01X782280Y229830D02*
G02Y219830I0J-5000D01*
G01X761280D02*
X782280D01*
G01X761280Y229830D02*
X782280D01*
G01X760980Y259920D02*
X781980D01*
G01X760980Y249920D02*
X781980D01*
G01X747980Y273920D02*
G03X761980Y259920I14000J0D01*
G01X747980Y273920D02*
G02X761980Y287920I14000J0D01*
G01Y249920D02*
G02Y297920I0J24000D01*
G01X781980Y259920D02*
G02Y249920I0J-5000D01*
G01X782280Y229830D02*
G02Y219830I0J-5000D01*
G01X761560Y324190D02*
X782560D01*
G01X761560Y334190D02*
X782560D01*
G01X762560Y324190D02*
G02Y372190I0J24000D01*
G01X748560Y348190D02*
G03X762560Y334190I14000J0D01*
G01X782560D02*
G02Y324190I0J-5000D01*
G01X761560D02*
X782560D01*
G01X761560Y334190D02*
X782560D01*
G01X762560Y324190D02*
G02Y372190I0J24000D01*
G01X748560Y348190D02*
G03X762560Y334190I14000J0D01*
G01X782560D02*
G02Y324190I0J-5000D01*
G01X760980Y287920D02*
X781980D01*
G01X760980Y297920D02*
X781980D01*
G01D02*
G02Y287920I0J-5000D01*
G01X760980D02*
X781980D01*
G01X760980Y297920D02*
X781980D01*
G01D02*
G02Y287920I0J-5000D01*
G01X761560Y362190D02*
X782560D01*
G01X761560Y372190D02*
X782560D01*
G01X748560Y348190D02*
G02X762560Y362190I14000J0D01*
G01X761260Y392280D02*
X782260D01*
G01X761260Y402280D02*
X782260D01*
G01X762260Y392280D02*
G02Y440280I0J24000D01*
G01X748260Y416280D02*
G03X762260Y402280I14000J0D01*
G01X782260D02*
G02Y392280I0J-5000D01*
G01X782560Y372190D02*
G02Y362190I0J-5000D01*
G01X761560D02*
X782560D01*
G01X761560Y372190D02*
X782560D01*
G01X748560Y348190D02*
G02X762560Y362190I14000J0D01*
G01X761260Y392280D02*
X782260D01*
G01X761260Y402280D02*
X782260D01*
G01X762260Y392280D02*
G02Y440280I0J24000D01*
G01X748260Y416280D02*
G03X762260Y402280I14000J0D01*
G01X782260D02*
G02Y392280I0J-5000D01*
G01X782560Y372190D02*
G02Y362190I0J-5000D01*
G01X761260Y440280D02*
X782260D01*
G01X761260Y430280D02*
X782260D01*
G01X748260Y416280D02*
G02X762260Y430280I14000J0D01*
G01X761280Y463830D02*
X782280D01*
G01X761280Y473830D02*
X782280D01*
G01X748280Y487830D02*
G03X762280Y473830I14000J0D01*
G01Y463830D02*
G02Y511830I0J24000D01*
G01X782280Y473830D02*
G02Y463830I0J-5000D01*
G01X782260Y440280D02*
G02Y430280I0J-5000D01*
G01X761260Y440280D02*
X782260D01*
G01X761260Y430280D02*
X782260D01*
G01X748260Y416280D02*
G02X762260Y430280I14000J0D01*
G01X761280Y463830D02*
X782280D01*
G01X761280Y473830D02*
X782280D01*
G01X748280Y487830D02*
G03X762280Y473830I14000J0D01*
G01Y463830D02*
G02Y511830I0J24000D01*
G01X782280Y473830D02*
G02Y463830I0J-5000D01*
G01X782260Y440280D02*
G02Y430280I0J-5000D01*
G01X761280Y501830D02*
X782280D01*
G01X748280Y487830D02*
G02X762280Y501830I14000J0D01*
G01X761280Y511830D02*
X782280D01*
G01X760980Y531920D02*
X781980D01*
G01X761980D02*
G02Y579920I0J24000D01*
G01X781980Y541920D02*
G02Y531920I0J-5000D01*
G01X782280Y511830D02*
G02Y501830I0J-5000D01*
G01X761280D02*
X782280D01*
G01X748280Y487830D02*
G02X762280Y501830I14000J0D01*
G01X761280Y511830D02*
X782280D01*
G01X760980Y531920D02*
X781980D01*
G01X761980D02*
G02Y579920I0J24000D01*
G01X781980Y541920D02*
G02Y531920I0J-5000D01*
G01X782280Y511830D02*
G02Y501830I0J-5000D01*
G01X760980Y569920D02*
X781980D01*
G01X760980Y579920D02*
X781980D01*
G01X760980Y541920D02*
X781980D01*
G01X747980Y555920D02*
G03X761980Y541920I14000J0D01*
G01X747980Y555920D02*
G02X761980Y569920I14000J0D01*
G01X781980Y579920D02*
G02Y569920I0J-5000D01*
G01X760980D02*
X781980D01*
G01X760980Y579920D02*
X781980D01*
G01X760980Y541920D02*
X781980D01*
G01X747980Y555920D02*
G03X761980Y541920I14000J0D01*
G01X747980Y555920D02*
G02X761980Y569920I14000J0D01*
G01X781980Y579920D02*
G02Y569920I0J-5000D01*
G01X761560Y607190D02*
X782560D01*
G01X761560Y617190D02*
X782560D01*
G01X761560Y645190D02*
X782560D01*
G01X761560Y655190D02*
X782560D01*
G01X748560Y631190D02*
G02X762560Y645190I14000J0D01*
G01Y607190D02*
G02Y655190I0J24000D01*
G01X748560Y631190D02*
G03X762560Y617190I14000J0D01*
G01X782560Y655190D02*
G02Y645190I0J-5000D01*
G01Y617190D02*
G02Y607190I0J-5000D01*
G01X761260Y675280D02*
X782260D01*
G01X761260Y685280D02*
X782260D01*
G01X761260Y723280D02*
X782260D01*
G01X761260Y713280D02*
X782260D01*
G01X762260Y675280D02*
G02Y723280I0J24000D01*
G01X748260Y699280D02*
G02X762260Y713280I14000J0D01*
G01X748260Y699280D02*
G03X762260Y685280I14000J0D01*
G01X782260Y723280D02*
G02Y713280I0J-5000D01*
G01Y685280D02*
G02Y675280I0J-5000D01*
G01X761280Y784830D02*
X782280D01*
G01X761280Y746830D02*
X782280D01*
G01X761280Y756830D02*
X782280D01*
G01X748280Y770830D02*
G03X762280Y756830I14000J0D01*
G01X748280Y770830D02*
G02X762280Y784830I14000J0D01*
G01X761280Y794830D02*
X782280D01*
G01X762280Y746830D02*
G02Y794830I0J24000D01*
G01X782280D02*
G02Y784830I0J-5000D01*
G01Y756830D02*
G02Y746830I0J-5000D01*
G01X760980Y852920D02*
X781980D01*
G01X760980Y824920D02*
X781980D01*
G01X760980Y814920D02*
X781980D01*
G01X747980Y838920D02*
G03X761980Y824920I14000J0D01*
G01X747980Y838920D02*
G02X761980Y852920I14000J0D01*
G01Y814920D02*
G02Y862920I0J24000D01*
G01X781980D02*
G02Y852920I0J-5000D01*
G01Y824920D02*
G02Y814920I0J-5000D01*
G01X761560Y890190D02*
X782560D01*
G01X761560Y900190D02*
X782560D01*
G01X748560Y914190D02*
G02X762560Y928190I14000J0D01*
G01Y890190D02*
G02Y938190I0J24000D01*
G01X748560Y914190D02*
G03X762560Y900190I14000J0D01*
G01X782560D02*
G02Y890190I0J-5000D01*
G01X761560D02*
X782560D01*
G01X761560Y900190D02*
X782560D01*
G01X748560Y914190D02*
G02X762560Y928190I14000J0D01*
G01Y890190D02*
G02Y938190I0J24000D01*
G01X748560Y914190D02*
G03X762560Y900190I14000J0D01*
G01X782560D02*
G02Y890190I0J-5000D01*
G01X761560D02*
X782560D01*
G01X761560Y900190D02*
X782560D01*
G01X748560Y914190D02*
G02X762560Y928190I14000J0D01*
G01Y890190D02*
G02Y938190I0J24000D01*
G01X748560Y914190D02*
G03X762560Y900190I14000J0D01*
G01X782560D02*
G02Y890190I0J-5000D01*
G01X760980Y862920D02*
X781980D01*
G01X761560Y928190D02*
X782560D01*
G01X761560Y938190D02*
X782560D01*
G01X761260Y958280D02*
X782260D01*
G01X761260Y968280D02*
X782260D01*
G01X762260Y958280D02*
G02Y1006280I0J24000D01*
G01X748260Y982280D02*
G02X762260Y996280I14000J0D01*
G01X748260Y982280D02*
G03X762260Y968280I14000J0D01*
G01X782260D02*
G02Y958280I0J-5000D01*
G01X782560Y938190D02*
G02Y928190I0J-5000D01*
G01X761560D02*
X782560D01*
G01X761560Y938190D02*
X782560D01*
G01X761260Y958280D02*
X782260D01*
G01X761260Y968280D02*
X782260D01*
G01X762260Y958280D02*
G02Y1006280I0J24000D01*
G01X748260Y982280D02*
G02X762260Y996280I14000J0D01*
G01X748260Y982280D02*
G03X762260Y968280I14000J0D01*
G01X782260D02*
G02Y958280I0J-5000D01*
G01X782560Y938190D02*
G02Y928190I0J-5000D01*
G01X761560D02*
X782560D01*
G01X761560Y938190D02*
X782560D01*
G01X761260Y958280D02*
X782260D01*
G01X761260Y968280D02*
X782260D01*
G01X762260Y958280D02*
G02Y1006280I0J24000D01*
G01X748260Y982280D02*
G02X762260Y996280I14000J0D01*
G01X748260Y982280D02*
G03X762260Y968280I14000J0D01*
G01X782260D02*
G02Y958280I0J-5000D01*
G01X782560Y938190D02*
G02Y928190I0J-5000D01*
G01X761260Y1006280D02*
X782260D01*
G01X761260Y996280D02*
X782260D01*
G01X761280Y1029830D02*
X782280D01*
G01X761280Y1039830D02*
X782280D01*
G01X748280Y1053830D02*
G03X762280Y1039830I14000J0D01*
G01X748280Y1053830D02*
G02X762280Y1067830I14000J0D01*
G01Y1029830D02*
G02Y1077830I0J24000D01*
G01X782280Y1039830D02*
G02Y1029830I0J-5000D01*
G01X782260Y1006280D02*
G02Y996280I0J-5000D01*
G01X761260Y1006280D02*
X782260D01*
G01X761260Y996280D02*
X782260D01*
G01X761280Y1029830D02*
X782280D01*
G01X761280Y1039830D02*
X782280D01*
G01X748280Y1053830D02*
G03X762280Y1039830I14000J0D01*
G01X748280Y1053830D02*
G02X762280Y1067830I14000J0D01*
G01Y1029830D02*
G02Y1077830I0J24000D01*
G01X782280Y1039830D02*
G02Y1029830I0J-5000D01*
G01X782260Y1006280D02*
G02Y996280I0J-5000D01*
G01X761260Y1006280D02*
X782260D01*
G01X761260Y996280D02*
X782260D01*
G01X761280Y1029830D02*
X782280D01*
G01X761280Y1039830D02*
X782280D01*
G01X748280Y1053830D02*
G03X762280Y1039830I14000J0D01*
G01X748280Y1053830D02*
G02X762280Y1067830I14000J0D01*
G01Y1029830D02*
G02Y1077830I0J24000D01*
G01X782280Y1039830D02*
G02Y1029830I0J-5000D01*
G01X782260Y1006280D02*
G02Y996280I0J-5000D01*
G01X761280Y1067830D02*
X782280D01*
G01X761280Y1077830D02*
X782280D01*
G01X760980Y1107920D02*
X781980D01*
G01X760980Y1097920D02*
X781980D01*
G01X747980Y1121920D02*
G03X761980Y1107920I14000J0D01*
G01Y1097920D02*
G02Y1145920I0J24000D01*
G01X781980Y1107920D02*
G02Y1097920I0J-5000D01*
G01X782280Y1077830D02*
G02Y1067830I0J-5000D01*
G01X761280D02*
X782280D01*
G01X761280Y1077830D02*
X782280D01*
G01X760980Y1107920D02*
X781980D01*
G01X760980Y1097920D02*
X781980D01*
G01X747980Y1121920D02*
G03X761980Y1107920I14000J0D01*
G01Y1097920D02*
G02Y1145920I0J24000D01*
G01X781980Y1107920D02*
G02Y1097920I0J-5000D01*
G01X782280Y1077830D02*
G02Y1067830I0J-5000D01*
G01X761280D02*
X782280D01*
G01X761280Y1077830D02*
X782280D01*
G01X760980Y1107920D02*
X781980D01*
G01X760980Y1097920D02*
X781980D01*
G01X747980Y1121920D02*
G03X761980Y1107920I14000J0D01*
G01Y1097920D02*
G02Y1145920I0J24000D01*
G01X781980Y1107920D02*
G02Y1097920I0J-5000D01*
G01X782280Y1077830D02*
G02Y1067830I0J-5000D01*
G01X761560Y1174190D02*
X782560D01*
G01X761560Y1184190D02*
X782560D01*
G01X762560Y1174190D02*
G02Y1222190I0J24000D01*
G01X748560Y1198190D02*
G03X762560Y1184190I14000J0D01*
G01X782560D02*
G02Y1174190I0J-5000D01*
G01X760980Y1135920D02*
X781980D01*
G01X760980Y1145920D02*
X781980D01*
G01X747980Y1121920D02*
G02X761980Y1135920I14000J0D01*
G01X781980Y1145920D02*
G02Y1135920I0J-5000D01*
G01X760980D02*
X781980D01*
G01X760980Y1145920D02*
X781980D01*
G01X747980Y1121920D02*
G02X761980Y1135920I14000J0D01*
G01X781980Y1145920D02*
G02Y1135920I0J-5000D01*
G01X760980D02*
X781980D01*
G01X760980Y1145920D02*
X781980D01*
G01X747980Y1121920D02*
G02X761980Y1135920I14000J0D01*
G01X781980Y1145920D02*
G02Y1135920I0J-5000D01*
G01X761560Y1212190D02*
X782560D01*
G01X761560Y1222190D02*
X782560D01*
G01X748560Y1198190D02*
G02X762560Y1212190I14000J0D01*
G01X761260Y1242280D02*
X782260D01*
G01X762260D02*
G02Y1290280I0J24000D01*
G01X782260Y1252280D02*
G02Y1242280I0J-5000D01*
G01X782560Y1222190D02*
G02Y1212190I0J-5000D01*
G01X761260Y1252280D02*
X782260D01*
G01X761260Y1290280D02*
X782260D01*
G01X761260Y1280280D02*
X782260D01*
G01X748260Y1266280D02*
G02X762260Y1280280I14000J0D01*
G01X748260Y1266280D02*
G03X762260Y1252280I14000J0D01*
G01X761280Y1313830D02*
X782280D01*
G01X762280D02*
G02Y1361830I0J24000D01*
G01X782280Y1323830D02*
G02Y1313830I0J-5000D01*
G01X782260Y1290280D02*
G02Y1280280I0J-5000D01*
G01X761280Y1351830D02*
X782280D01*
G01X761280Y1323830D02*
X782280D01*
G01X748280Y1337830D02*
G03X762280Y1323830I14000J0D01*
G01X748280Y1337830D02*
G02X762280Y1351830I14000J0D01*
G01X761280Y1361830D02*
X782280D01*
G01D02*
G02Y1351830I0J-5000D01*
G01X760980Y1419920D02*
X781980D01*
G01X760980Y1429920D02*
X781980D01*
G01X760980Y1391920D02*
X781980D01*
G01X760980Y1381920D02*
X781980D01*
G01X747980Y1405920D02*
G03X761980Y1391920I14000J0D01*
G01X747980Y1405920D02*
G02X761980Y1419920I14000J0D01*
G01Y1381920D02*
G02Y1429920I0J24000D01*
G01X781980D02*
G02Y1419920I0J-5000D01*
G01Y1391920D02*
G02Y1381920I0J-5000D01*
G01X761560Y1458190D02*
X782560D01*
G01X761560Y1468190D02*
X782560D01*
G01X761560Y1496190D02*
X782560D01*
G01X761560Y1506190D02*
X782560D01*
G01X748560Y1482190D02*
G02X762560Y1496190I14000J0D01*
G01Y1458190D02*
G02Y1506190I0J24000D01*
G01X748560Y1482190D02*
G03X762560Y1468190I14000J0D01*
G01X782560Y1506190D02*
G02Y1496190I0J-5000D01*
G01Y1468190D02*
G02Y1458190I0J-5000D01*
G01X761560D02*
X782560D01*
G01X761560Y1468190D02*
X782560D01*
G01X761560Y1496190D02*
X782560D01*
G01X761560Y1506190D02*
X782560D01*
G01X748560Y1482190D02*
G02X762560Y1496190I14000J0D01*
G01Y1458190D02*
G02Y1506190I0J24000D01*
G01X748560Y1482190D02*
G03X762560Y1468190I14000J0D01*
G01X782560Y1506190D02*
G02Y1496190I0J-5000D01*
G01Y1468190D02*
G02Y1458190I0J-5000D01*
G01X761260Y1526280D02*
X782260D01*
G01X761260Y1536280D02*
X782260D01*
G01X761260Y1564280D02*
X782260D01*
G01X762260Y1526280D02*
G02Y1574280I0J24000D01*
G01X748260Y1550280D02*
G02X762260Y1564280I14000J0D01*
G01X748260Y1550280D02*
G03X762260Y1536280I14000J0D01*
G01X782260Y1574280D02*
G02Y1564280I0J-5000D01*
G01Y1536280D02*
G02Y1526280I0J-5000D01*
G01X761260D02*
X782260D01*
G01X761260Y1536280D02*
X782260D01*
G01X761260Y1564280D02*
X782260D01*
G01X762260Y1526280D02*
G02Y1574280I0J24000D01*
G01X748260Y1550280D02*
G02X762260Y1564280I14000J0D01*
G01X748260Y1550280D02*
G03X762260Y1536280I14000J0D01*
G01X782260Y1574280D02*
G02Y1564280I0J-5000D01*
G01Y1536280D02*
G02Y1526280I0J-5000D01*
G01X761260Y1574280D02*
X782260D01*
G01X761280Y1635830D02*
X782280D01*
G01X761280Y1597830D02*
X782280D01*
G01X761280Y1607830D02*
X782280D01*
G01X748280Y1621830D02*
G03X762280Y1607830I14000J0D01*
G01X748280Y1621830D02*
G02X762280Y1635830I14000J0D01*
G01Y1597830D02*
G02Y1645830I0J24000D01*
G01X782280D02*
G02Y1635830I0J-5000D01*
G01Y1607830D02*
G02Y1597830I0J-5000D01*
G01X761260Y1574280D02*
X782260D01*
G01X761280Y1635830D02*
X782280D01*
G01X761280Y1597830D02*
X782280D01*
G01X761280Y1607830D02*
X782280D01*
G01X748280Y1621830D02*
G03X762280Y1607830I14000J0D01*
G01X748280Y1621830D02*
G02X762280Y1635830I14000J0D01*
G01Y1597830D02*
G02Y1645830I0J24000D01*
G01X782280D02*
G02Y1635830I0J-5000D01*
G01Y1607830D02*
G02Y1597830I0J-5000D01*
G01X761280Y1645830D02*
X782280D01*
G01X760980Y1675920D02*
X781980D01*
G01X760980Y1665920D02*
X781980D01*
G01X747980Y1689920D02*
G03X761980Y1675920I14000J0D01*
G01X747980Y1689920D02*
G02X761980Y1703920I14000J0D01*
G01Y1665920D02*
G02Y1713920I0J24000D01*
G01X781980Y1675920D02*
G02Y1665920I0J-5000D01*
G01X761280Y1645830D02*
X782280D01*
G01X760980Y1675920D02*
X781980D01*
G01X760980Y1665920D02*
X781980D01*
G01X747980Y1689920D02*
G03X761980Y1675920I14000J0D01*
G01X747980Y1689920D02*
G02X761980Y1703920I14000J0D01*
G01Y1665920D02*
G02Y1713920I0J24000D01*
G01X781980Y1675920D02*
G02Y1665920I0J-5000D01*
G01X761560Y1741190D02*
X782560D01*
G01X761560Y1751190D02*
X782560D01*
G01X748560Y1765190D02*
G02X762560Y1779190I14000J0D01*
G01Y1741190D02*
G02Y1789190I0J24000D01*
G01X748560Y1765190D02*
G03X762560Y1751190I14000J0D01*
G01X782560D02*
G02Y1741190I0J-5000D01*
G01X760980Y1703920D02*
X781980D01*
G01X760980Y1713920D02*
X781980D01*
G01D02*
G02Y1703920I0J-5000D01*
G01X760980D02*
X781980D01*
G01X760980Y1713920D02*
X781980D01*
G01D02*
G02Y1703920I0J-5000D01*
G01X761560Y1779190D02*
X782560D01*
G01X761560Y1789190D02*
X782560D01*
G01X761260Y1809280D02*
X782260D01*
G01X761260Y1819280D02*
X782260D01*
G01X762260Y1809280D02*
G02Y1857280I0J24000D01*
G01X748260Y1833280D02*
G03X762260Y1819280I14000J0D01*
G01X782260D02*
G02Y1809280I0J-5000D01*
G01X782560Y1789190D02*
G02Y1779190I0J-5000D01*
G01X761260Y1857280D02*
X782260D01*
G01X761260Y1847280D02*
X782260D01*
G01X748260Y1833280D02*
G02X762260Y1847280I14000J0D01*
G01X761280Y1880830D02*
X782280D01*
G01X761280Y1890830D02*
X782280D01*
G01X748280Y1904830D02*
G03X762280Y1890830I14000J0D01*
G01Y1880830D02*
G02Y1928830I0J24000D01*
G01X782280Y1890830D02*
G02Y1880830I0J-5000D01*
G01X782260Y1857280D02*
G02Y1847280I0J-5000D01*
G01X761280Y1918830D02*
X782280D01*
G01X748280Y1904830D02*
G02X762280Y1918830I14000J0D01*
G01X761280Y1928830D02*
X782280D01*
G01X760980Y1958920D02*
X781980D01*
G01X760980Y1948920D02*
X781980D01*
G01X747980Y1972920D02*
G03X761980Y1958920I14000J0D01*
G01Y1948920D02*
G02Y1996920I0J24000D01*
G01X781980Y1958920D02*
G02Y1948920I0J-5000D01*
G01X782280Y1928830D02*
G02Y1918830I0J-5000D01*
G01X760980Y1986920D02*
X781980D01*
G01X760980Y1996920D02*
X781980D01*
G01X747980Y1972920D02*
G02X761980Y1986920I14000J0D01*
G01X781980Y1996920D02*
G02Y1986920I0J-5000D01*
G01X762580Y2024270D02*
G02Y2072270I0J24000D01*
G01X748580Y2048270D02*
G02X762580Y2062270I14000J0D01*
G01X761580D02*
X782580D01*
G01Y2072270D02*
G02Y2062270I0J-5000D01*
G01X761580Y2072270D02*
X782580D01*
G01X748580Y2048270D02*
G03X762580Y2034270I14000J0D01*
G01X761580D02*
X782580D01*
G01D02*
G02Y2024270I0J-5000D01*
G01X761580D02*
X782580D01*
G01X761560Y2024190D02*
X782560D01*
G01X761560Y2034190D02*
X782560D01*
G01X761560Y2062190D02*
X782560D01*
G01X761560Y2072190D02*
X782560D01*
G01X748560Y2048190D02*
G02X762560Y2062190I14000J0D01*
G01Y2024190D02*
G02Y2072190I0J24000D01*
G01X748560Y2048190D02*
G03X762560Y2034190I14000J0D01*
G01X782560Y2072190D02*
G02Y2062190I0J-5000D01*
G01Y2034190D02*
G02Y2024190I0J-5000D01*
G01X761280Y2130360D02*
X782280D01*
G01Y2140360D02*
G02Y2130360I0J-5000D01*
G01X761280Y2140360D02*
X782280D01*
G01Y2102360D02*
G02Y2092360I0J-5000D01*
G01X761280Y2102360D02*
X782280D01*
G01X761280Y2092360D02*
X782280D01*
G01X748280Y2116360D02*
G03X762280Y2102360I14000J0D01*
G01X748280Y2116360D02*
G02X762280Y2130360I14000J0D01*
G01Y2092360D02*
G02Y2140360I0J24000D01*
G01X761260Y2092280D02*
X782260D01*
G01X761260Y2102280D02*
X782260D01*
G01X761260Y2140280D02*
X782260D01*
G01X761260Y2130280D02*
X782260D01*
G01X762260Y2092280D02*
G02Y2140280I0J24000D01*
G01X748260Y2116280D02*
G02X762260Y2130280I14000J0D01*
G01X748260Y2116280D02*
G03X762260Y2102280I14000J0D01*
G01X782260Y2140280D02*
G02Y2130280I0J-5000D01*
G01Y2102280D02*
G02Y2092280I0J-5000D01*
G01X782300Y2173910D02*
G02Y2163910I0J-5000D01*
G01X761300D02*
X782300D01*
G01X761300Y2173910D02*
X782300D01*
G01X762300Y2163910D02*
G02Y2211910I0J24000D01*
G01X748300Y2187910D02*
G03X762300Y2173910I14000J0D01*
G01X782300Y2211910D02*
G02Y2201910I0J-5000D01*
G01X761300D02*
X782300D01*
G01X761300Y2211910D02*
X782300D01*
G01X748300Y2187910D02*
G02X762300Y2201910I14000J0D01*
G01X761280Y2201830D02*
X782280D01*
G01X761280Y2163830D02*
X782280D01*
G01X761280Y2173830D02*
X782280D01*
G01X748280Y2187830D02*
G03X762280Y2173830I14000J0D01*
G01X748280Y2187830D02*
G02X762280Y2201830I14000J0D01*
G01X761280Y2211830D02*
X782280D01*
G01X762280Y2163830D02*
G02Y2211830I0J24000D01*
G01X782280D02*
G02Y2201830I0J-5000D01*
G01Y2173830D02*
G02Y2163830I0J-5000D01*
G01X748000Y2256000D02*
G02X762000Y2270000I14000J0D01*
G01X748000Y2256000D02*
G03X762000Y2242000I14000J0D01*
G01X761000Y2270000D02*
X782000D01*
G01X761980Y2231920D02*
X782000Y2232000D01*
G01Y2280000D02*
G02Y2270000I0J-5000D01*
G01Y2242000D02*
G02Y2232000I0J-5000D01*
G01X761980Y2279920D02*
X782000Y2280000D01*
G01X761980Y2231920D02*
G02Y2279920I0J24000D01*
G01X762000Y2242000D02*
X782000D01*
M02*
