M48
METRIC,TZ
T01C.5
T02C.85
T03C.9
T04C1.
T05C1.1
T06C1.3
T07C2.
T08C3.2
;LEADER: 12 
;HEADER: 
;CODE  : ASCII 
;FILE  : KPRD_04v1-1-2.drl for  ... layers TOP and BOTTOM
;T01 Holesize 1. = 0.500000 Tolerance = +0.000000/-0.000000 PLATED MM Quantity = 128
;T02 Holesize 2. = 0.850000 Tolerance = +0.000000/-0.000000 PLATED MM Quantity = 48
;T03 Holesize 3. = 0.900000 Tolerance = +0.000000/-0.000000 PLATED MM Quantity = 32
;T04 Holesize 4. = 1.000000 Tolerance = +0.000000/-0.000000 PLATED MM Quantity = 130
;T05 Holesize 5. = 1.100000 Tolerance = +0.000000/-0.000000 PLATED MM Quantity = 64
;T06 Holesize 6. = 1.300000 Tolerance = +0.000000/-0.000000 PLATED MM Quantity = 96
;T07 Holesize 7. = 2.000000 Tolerance = +0.000000/-0.000000 PLATED MM Quantity = 32
;T08 Holesize 8. = 3.200000 Tolerance = +0.000000/-0.000000 PLATED MM Quantity = 4
%
G90
T01
X515000Y924000
X308600Y1097000
X338000Y1049000
X322000Y899000
X379000Y1890000
X322000Y986000
X313000Y969000
X342000Y903000
X321600Y1882600
X384000Y1757000
X322000Y1964000
X516000Y1776000
X308600Y1948000
X338000Y1900000
X323000Y1751000
X385000Y340000
X323000Y1838000
X314000Y1821000
X343000Y1755000
X517000Y359000
X324000Y334000
Y421000
X315000Y404000
X344000Y338000
X383000Y1189000
X96000Y1281900
X238700Y2182500
X236600Y2049100
X237700Y1900100
Y1767200
X237500Y1617700
Y1483700
Y1333400
X237200Y1199000
X237700Y1049400
Y915000
X238700Y767000
X237200Y631800
X237700Y483600
X238900Y351000
X238980Y196350
X238900Y67800
X379000Y2172000
X515000Y1208000
X322000Y1183000
Y1270000
X313000Y1253000
X342000Y1187000
X383000Y2039000
X515000Y2058000
X322000Y2033000
X383000Y622000
X322000Y2120000
X33000Y846000
X89800Y1335700
X313000Y2103000
X342000Y2037000
X515000Y641000
X322000Y616000
X378000Y473000
X308600Y2230000
X338000Y2182000
X322000Y2246000
Y703000
X313000Y686000
X342000Y620000
X320600Y465600
X383000Y1473000
X321000Y547000
X307600Y531000
X337000Y483000
X321600Y2164600
X515000Y1492000
X322000Y1467000
X378000Y1323000
X322000Y1554000
X313000Y1537000
X342000Y1471000
X320600Y1315600
X385000Y58000
X321000Y1397000
X307600Y1381000
X337000Y1333000
X517000Y77000
X324000Y52000
Y139000
X315000Y122000
X344000Y56000
X379000Y756000
X321600Y748600
X322000Y830000
X239000Y2241000
Y2104000
Y1961500
X240000Y1824000
X239390Y1679420
X239000Y1542000
X237720Y1394310
X239000Y1260000
Y1110030
Y974700
X241000Y128000
X239800Y262830
X241000Y409000
X238000Y542000
X239000Y689000
Y825030
X51000Y1235000
R02X16000
Y1221000
X67000
X308600Y814000
X338000Y766000
X379000Y1607000
X321600Y1599600
X322000Y1681000
X308600Y1665000
X338000Y1617000
X380000Y191000
X322600Y183600
X379000Y1039000
X323000Y265000
X309600Y249000
X339000Y201000
X321600Y1031600
X383000Y905000
X322000Y1113000
T02
X603400Y196000
X578000Y221400
X552600Y196000
X626000Y36600
X651400Y62000
X626000Y87400
X624000Y2017600
X649400Y2043000
X624000Y2068400
X602400Y1895000
X577000Y1920400
X551600Y1895000
X625000Y1735600
X650400Y1761000
X625000Y1786400
X602400Y1612000
X577000Y1637400
X551600Y1612000
X624000Y1451600
X649400Y1477000
X624000Y1502400
X602400Y2177000
X577000Y2202400
X551600Y2177000
X601400Y1328000
X576000Y1353400
X550600Y1328000
X624000Y1167600
X649400Y1193000
X624000Y1218400
X602400Y1044000
X577000Y1069400
X551600Y1044000
X624000Y883600
X649400Y909000
X624000Y934400
X602400Y761000
X577000Y786400
X551600Y761000
X624000Y600600
X649400Y626000
X624000Y651400
X601400Y478000
X576000Y503400
X550600Y478000
X626000Y318600
X651400Y344000
X626000Y369400
T03
X695000Y2113000
Y2063000
X505000Y1969000
Y1919000
X696000Y1831000
Y1781000
X505000Y1686000
Y1636000
X695000Y1547000
Y1497000
X504000Y1402000
Y1352000
X695000Y1263000
Y1213000
X505000Y1118000
Y1068000
X695000Y979000
Y929000
X505000Y835000
Y785000
X695000Y696000
Y646000
X504000Y552000
Y502000
X697000Y414000
Y364000
X506000Y270000
Y220000
X505000Y2251000
Y2201000
X697000Y132000
Y82000
T04
X401000Y1549700
Y1524300
X399000Y1404700
Y1379300
X401000Y1265700
Y1240300
X400000Y1120700
Y1095300
X401000Y981700
Y956300
X400000Y837700
Y812300
X401000Y698700
Y673300
X399000Y554700
Y529300
X403000Y416700
Y391300
X401000Y272700
Y247300
X403000Y134700
Y109300
X57050Y131400
R07Y25400
Y360000
R08Y25400
Y614000
R08Y25400
Y868000
Y893400
X107850Y131400
R07Y25400
Y360000
R08Y25400
Y614000
R08Y25400
Y868000
Y893400
X82450Y131400
R07Y25400
Y360000
R08Y25400
Y614000
R08Y25400
Y868000
Y893400
X57050Y106000
R02X25400
X57050Y334600
R02X25400
X57050Y588600
R02X25400
X57050Y842600
R02X25400
X30000Y1027300
Y1052700
X400000Y2253700
Y2228300
X401000Y2115700
Y2090300
X400000Y1971700
Y1946300
X402000Y1833700
Y1808300
X400000Y1688700
Y1663300
T05
X865000Y2116000
X765000
Y2048000
X865000
Y1973000
X765000
Y1905000
X865000
X866000Y1834000
X766000
Y1766000
X866000
X865000Y1690000
X765000
Y1622000
X865000
Y1550000
X765000
Y1482000
X865000
X864000Y1406000
X764000
Y1338000
X864000
X865000Y1266000
X765000
Y1198000
X865000
Y1122000
X765000
Y1054000
X865000
Y982000
X765000
Y914000
X865000
Y839000
X765000
Y771000
X865000
Y2255000
X765000
X865000Y699000
X765000
Y631000
X865000
X864000Y556000
X764000
Y488000
X864000
X765000Y2187000
X865000
X867000Y417000
X767000
Y349000
X867000
X866000Y274000
X766000
Y206000
X866000
X867000Y135000
X767000
Y67000
X867000
T06
X550000Y926000
Y976000
X667000Y779000
Y829000
X550000Y643000
Y693000
X666000Y496000
Y546000
X552000Y361000
Y411000
X668000Y214000
Y264000
X550000Y2060000
Y2110000
X552000Y79000
Y129000
X667000Y1913000
Y1963000
X551000Y1778000
Y1828000
X667000Y1630000
Y1680000
Y2195000
Y2245000
X550000Y1494000
Y1544000
X666000Y1346000
Y1396000
X550000Y1210000
Y1260000
X667000Y1062000
Y1112000
X435000Y210250
Y247750
X400000Y211750
Y174250
X445000Y88250
Y125750
X403000Y76750
Y39250
X443000Y2069250
Y2106750
X401000Y2057750
Y2020250
X434000Y1909250
Y1946750
X399000Y1910750
Y1873250
X444000Y1787250
Y1824750
X402000Y1775750
Y1738250
X434000Y1626250
Y1663750
X399000Y1627750
Y1590250
X443000Y1503250
Y1540750
X401000Y1491750
Y1454250
X433000Y1342250
Y1379750
X398000Y1343750
Y1306250
X443000Y1219250
Y1256750
X401000Y1207750
Y1170250
X434000Y2191250
Y2228750
Y1058250
Y1095750
X399000Y1059750
Y1022250
X443000Y935250
Y972750
X399000Y2192750
Y2155250
X401000Y923750
Y886250
X434000Y775250
Y812750
X399000Y776750
Y739250
X443000Y652250
Y689750
X401000Y640750
Y603250
X433000Y492250
Y529750
X398000Y493750
Y456250
X445000Y370250
Y407750
X403000Y358750
Y321250
T07
X913900Y2083000
R15Y-50800
Y1010000
R15Y-50800
T08
X31650Y55200
Y944200
X996800Y2276430
Y53930
M30
