G04 ================== begin FILE IDENTIFICATION RECORD ==================*
G04 Layout Name:  D:/Project/Circuit/ORCAD/KPRD/04v1/pcb/KPRD_04v1.brd*
G04 Film Name:    MASK_TOP*
G04 File Format:  Gerber RS274X*
G04 File Origin:  Cadence Allegro 16.6-S018*
G04 Origin Date:  Sat Nov 09 13:40:19 2013*
G04 *
G04 Layer:  VIA CLASS/SOLDERMASK_TOP*
G04 Layer:  PIN/SOLDERMASK_TOP*
G04 Layer:  PACKAGE GEOMETRY/SOLDERMASK_TOP*
G04 *
G04 Offset:    (0.000 0.000)*
G04 Mirror:    No*
G04 Mode:      Positive*
G04 Rotation:  0*
G04 FullContactRelief:  No*
G04 UndefLineWidth:     0.000*
G04 ================== end FILE IDENTIFICATION RECORD ====================*
%FSLAX34Y34*MOMM*%
%IR0*IPPOS*OFA0.00000B0.00000*MIA0B0*SFA1.00000B1.00000*%
%ADD28R,1.2X.8*%
%ADD37C,5.*%
%ADD31C,1.4*%
%ADD33C,1.6*%
%ADD26C,2.05*%
%ADD21R,.8X1.25*%
%ADD30C,2.15*%
%ADD10C,4.4*%
%ADD35C,2.7*%
%ADD12C,1.8*%
%ADD32R,1.4X1.4*%
%ADD13C,1.75*%
%ADD34R,1.6X1.6*%
%ADD27R,2.05X2.05*%
%ADD29R,2.15X2.15*%
%ADD16R,2.25X2.25*%
%ADD11R,1.75X1.75*%
%ADD20R,1.15X2.1*%
%ADD19R,3.4X2.1*%
%ADD14R,1.3X1.6*%
%ADD23R,1.6X1.3*%
%ADD17R,1.15X1.6*%
%ADD25O,1.7X2.35*%
%ADD18R,1.6X1.15*%
%ADD15R,1.3X2.9*%
%ADD22R,3.8X1.4*%
%ADD36R,2.7X2.7*%
%ADD24R,1.95X1.2*%
%LPD*%
G75*
G54D10*
X31650Y55200D03*
Y944200D03*
G54D20*
X96000Y1198500D03*
X73000D03*
X50000D03*
G54D11*
X30000Y1027300D03*
X82450Y106000D03*
X57050D03*
X82450Y334600D03*
X57050D03*
X82450Y588600D03*
X57050D03*
X82450Y842600D03*
X57050D03*
X107850Y106000D03*
Y334600D03*
Y588600D03*
Y842600D03*
X403000Y134700D03*
X401000Y272700D03*
X403000Y416700D03*
X399000Y554700D03*
X401000Y698700D03*
X400000Y837700D03*
X401000Y981700D03*
X400000Y1120700D03*
X401000Y1265700D03*
X399000Y1404700D03*
X401000Y1549700D03*
X400000Y1688700D03*
X402000Y1833700D03*
X400000Y1971700D03*
X401000Y2115700D03*
X400000Y2253700D03*
G54D12*
X30000Y1052700D03*
X403000Y109300D03*
X401000Y247300D03*
X403000Y391300D03*
X399000Y529300D03*
X401000Y673300D03*
X400000Y812300D03*
X401000Y956300D03*
X400000Y1095300D03*
X401000Y1240300D03*
X399000Y1379300D03*
X401000Y1524300D03*
X400000Y1663300D03*
X402000Y1808300D03*
X400000Y1946300D03*
X401000Y2090300D03*
X400000Y2228300D03*
X767000Y67000D03*
Y135000D03*
X766000Y206000D03*
Y274000D03*
X767000Y349000D03*
Y417000D03*
X764000Y488000D03*
Y556000D03*
X765000Y631000D03*
Y699000D03*
Y771000D03*
Y839000D03*
Y914000D03*
Y982000D03*
Y1054000D03*
Y1122000D03*
Y1198000D03*
Y1266000D03*
X764000Y1338000D03*
Y1406000D03*
X765000Y1482000D03*
Y1550000D03*
Y1622000D03*
Y1690000D03*
X766000Y1766000D03*
Y1834000D03*
X765000Y1905000D03*
Y1973000D03*
Y2048000D03*
Y2116000D03*
Y2187000D03*
Y2255000D03*
X867000Y67000D03*
Y135000D03*
X866000Y206000D03*
Y274000D03*
X867000Y349000D03*
Y417000D03*
X864000Y488000D03*
Y556000D03*
X865000Y631000D03*
Y699000D03*
Y771000D03*
Y839000D03*
Y914000D03*
Y982000D03*
Y1054000D03*
Y1122000D03*
Y1198000D03*
Y1266000D03*
X864000Y1338000D03*
Y1406000D03*
X865000Y1482000D03*
Y1550000D03*
Y1622000D03*
Y1690000D03*
X866000Y1766000D03*
Y1834000D03*
X865000Y1905000D03*
Y1973000D03*
Y2048000D03*
Y2116000D03*
Y2187000D03*
Y2255000D03*
G54D30*
X552000Y129000D03*
Y411000D03*
X550000Y693000D03*
Y976000D03*
Y1260000D03*
Y1544000D03*
X551000Y1828000D03*
X550000Y2110000D03*
X668000Y264000D03*
X666000Y546000D03*
X667000Y829000D03*
Y1112000D03*
X666000Y1396000D03*
X667000Y1680000D03*
Y1963000D03*
Y2245000D03*
G54D21*
X93500Y1385500D03*
X103000Y1408500D03*
X112500Y1385500D03*
G54D22*
X103000Y1440000D03*
Y1500000D03*
G54D13*
X82450Y156800D03*
Y131400D03*
X57050Y156800D03*
Y131400D03*
X82450Y207600D03*
Y182200D03*
X57050Y207600D03*
Y182200D03*
X82450Y283800D03*
Y258400D03*
Y233000D03*
X57050Y283800D03*
Y258400D03*
Y233000D03*
X82450Y309200D03*
X57050D03*
X82450Y410800D03*
Y385400D03*
Y360000D03*
X57050Y410800D03*
Y385400D03*
Y360000D03*
X82450Y461600D03*
Y436200D03*
X57050Y461600D03*
Y436200D03*
X82450Y537800D03*
Y512400D03*
Y487000D03*
X57050Y537800D03*
Y512400D03*
Y487000D03*
X82450Y563200D03*
X57050D03*
X82450Y664800D03*
Y639400D03*
Y614000D03*
X57050Y664800D03*
Y639400D03*
Y614000D03*
X82450Y741000D03*
Y715600D03*
Y690200D03*
X57050Y741000D03*
Y715600D03*
Y690200D03*
X82450Y791800D03*
Y766400D03*
X57050Y791800D03*
Y766400D03*
X82450Y868000D03*
Y817200D03*
X57050Y868000D03*
Y817200D03*
X82450Y893400D03*
X57050D03*
X107850Y156800D03*
Y131400D03*
Y207600D03*
Y182200D03*
Y283800D03*
Y258400D03*
Y233000D03*
Y309200D03*
Y410800D03*
Y385400D03*
Y360000D03*
Y461600D03*
Y436200D03*
Y537800D03*
Y512400D03*
Y487000D03*
Y563200D03*
Y664800D03*
Y639400D03*
Y614000D03*
Y741000D03*
Y715600D03*
Y690200D03*
Y791800D03*
Y766400D03*
Y868000D03*
Y817200D03*
Y893400D03*
G54D31*
X506000Y220000D03*
X504000Y502000D03*
X505000Y785000D03*
Y1068000D03*
X504000Y1352000D03*
X505000Y1636000D03*
Y1919000D03*
Y2201000D03*
X697000Y82000D03*
Y364000D03*
X695000Y646000D03*
Y929000D03*
Y1213000D03*
Y1497000D03*
X696000Y1781000D03*
X695000Y2063000D03*
G54D23*
X166000Y84500D03*
Y67500D03*
X167000Y218500D03*
Y201500D03*
X166000Y349500D03*
Y366500D03*
X165000Y500500D03*
Y483500D03*
X164000Y648500D03*
Y631500D03*
X166000Y783500D03*
Y766500D03*
X164000Y931500D03*
Y914500D03*
X166000Y1049500D03*
Y1066500D03*
X164000Y1215500D03*
Y1198500D03*
X165000Y1350500D03*
Y1333500D03*
X164000Y1499500D03*
Y1482500D03*
X166000Y1634500D03*
Y1617500D03*
X165000Y1766500D03*
Y1783500D03*
X166000Y1900500D03*
Y1917500D03*
X164000Y2065500D03*
Y2048500D03*
X166000Y2199500D03*
Y2182500D03*
G54D14*
X85500Y1002000D03*
Y1025000D03*
X82500Y1133000D03*
X102500Y1002000D03*
Y1025000D03*
X99500Y1133000D03*
G54D32*
X506000Y270000D03*
X504000Y552000D03*
X505000Y835000D03*
Y1118000D03*
X504000Y1402000D03*
X505000Y1686000D03*
Y1969000D03*
Y2251000D03*
X697000Y132000D03*
Y414000D03*
X695000Y696000D03*
Y979000D03*
Y1263000D03*
Y1547000D03*
X696000Y1831000D03*
X695000Y2113000D03*
G54D24*
X189500Y76000D03*
Y50600D03*
Y101400D03*
Y209000D03*
Y183600D03*
Y234400D03*
Y332600D03*
Y383400D03*
Y358000D03*
X187500Y465600D03*
Y516400D03*
Y491000D03*
Y665400D03*
Y640000D03*
Y614600D03*
X188500Y799400D03*
Y774000D03*
Y748600D03*
X187500Y923000D03*
Y897600D03*
Y948400D03*
X188500Y1057000D03*
Y1031600D03*
Y1082400D03*
X187500Y1181600D03*
Y1232400D03*
Y1207000D03*
Y1315600D03*
Y1366400D03*
Y1341000D03*
Y1491000D03*
Y1465600D03*
Y1516400D03*
X188500Y1625000D03*
Y1599600D03*
Y1650400D03*
Y1749600D03*
Y1800400D03*
Y1775000D03*
Y1882600D03*
Y1933400D03*
Y1908000D03*
X187500Y2082400D03*
Y2057000D03*
Y2031600D03*
X188500Y2215400D03*
Y2190000D03*
Y2164600D03*
X304500Y76000D03*
Y50600D03*
Y101400D03*
Y209000D03*
Y183600D03*
Y234400D03*
Y332600D03*
Y383400D03*
Y358000D03*
X302500Y465600D03*
Y516400D03*
Y491000D03*
Y665400D03*
Y640000D03*
Y614600D03*
X303500Y799400D03*
Y774000D03*
Y748600D03*
X302500Y923000D03*
Y897600D03*
Y948400D03*
X303500Y1057000D03*
Y1031600D03*
Y1082400D03*
X302500Y1181600D03*
Y1232400D03*
Y1207000D03*
Y1315600D03*
Y1366400D03*
Y1341000D03*
Y1491000D03*
Y1465600D03*
Y1516400D03*
X303500Y1625000D03*
Y1599600D03*
Y1650400D03*
Y1749600D03*
Y1800400D03*
Y1775000D03*
Y1882600D03*
Y1933400D03*
Y1908000D03*
X302500Y2082400D03*
Y2057000D03*
Y2031600D03*
X303500Y2215400D03*
Y2190000D03*
Y2164600D03*
G54D15*
X72500Y1056000D03*
X76500Y1310000D03*
X103500Y1056000D03*
X107500Y1310000D03*
G54D33*
X550600Y478000D03*
Y1328000D03*
X552600Y196000D03*
X578000Y221400D03*
X576000Y503400D03*
X551600Y761000D03*
X577000Y786400D03*
X551600Y1044000D03*
X577000Y1069400D03*
X576000Y1353400D03*
X551600Y1612000D03*
X577000Y1637400D03*
X551600Y1895000D03*
X577000Y1920400D03*
X551600Y2177000D03*
X577000Y2202400D03*
X626000Y87400D03*
X651400Y62000D03*
Y344000D03*
X626000Y369400D03*
X624000Y651400D03*
X649400Y626000D03*
X624000Y934400D03*
X649400Y909000D03*
Y1193000D03*
X624000Y1218400D03*
Y1502400D03*
X649400Y1477000D03*
X650400Y1761000D03*
X625000Y1786400D03*
X624000Y2068400D03*
X649400Y2043000D03*
G54D25*
X342300Y36000D03*
Y126000D03*
X340300Y175000D03*
Y265000D03*
X342300Y318000D03*
Y408000D03*
X338300Y457000D03*
Y547000D03*
X340300Y600000D03*
X339300Y740000D03*
X340300Y690000D03*
X339300Y830000D03*
X340300Y883000D03*
Y973000D03*
X339300Y1023000D03*
Y1113000D03*
X340300Y1167000D03*
Y1257000D03*
X338300Y1307000D03*
X340300Y1451000D03*
X338300Y1397000D03*
X340300Y1541000D03*
X339300Y1591000D03*
Y1681000D03*
X341300Y1735000D03*
Y1825000D03*
X339300Y1874000D03*
Y1964000D03*
X340300Y2017000D03*
X339300Y2156000D03*
X340300Y2107000D03*
X339300Y2246000D03*
X367700Y36000D03*
Y126000D03*
X365700Y175000D03*
Y265000D03*
X367700Y318000D03*
Y408000D03*
X363700Y457000D03*
Y547000D03*
X365700Y600000D03*
X364700Y740000D03*
X365700Y690000D03*
X364700Y830000D03*
X365700Y883000D03*
Y973000D03*
X364700Y1023000D03*
Y1113000D03*
X365700Y1167000D03*
Y1257000D03*
X363700Y1307000D03*
X365700Y1451000D03*
X363700Y1397000D03*
X365700Y1541000D03*
X364700Y1591000D03*
Y1681000D03*
X366700Y1735000D03*
Y1825000D03*
X364700Y1874000D03*
Y1964000D03*
X365700Y2017000D03*
X364700Y2156000D03*
X365700Y2107000D03*
X364700Y2246000D03*
G54D16*
X58500Y1096000D03*
X101500D03*
G54D34*
X603400Y196000D03*
X601400Y478000D03*
X602400Y761000D03*
Y1044000D03*
X601400Y1328000D03*
X602400Y1612000D03*
Y1895000D03*
Y2177000D03*
X626000Y36600D03*
Y318600D03*
X624000Y600600D03*
Y883600D03*
Y1167600D03*
Y1451600D03*
X625000Y1735600D03*
X624000Y2017600D03*
G54D17*
X49500Y1168000D03*
X68500D03*
X89500Y1354000D03*
X108500D03*
G54D35*
X913900Y248000D03*
Y349600D03*
Y298800D03*
Y400400D03*
Y451200D03*
Y552800D03*
Y502000D03*
Y603600D03*
Y654400D03*
Y705200D03*
Y806800D03*
Y756000D03*
Y857600D03*
Y908400D03*
Y959200D03*
Y1321000D03*
Y1371800D03*
Y1422600D03*
Y1473400D03*
Y1575000D03*
Y1524200D03*
Y1625800D03*
Y1676600D03*
Y1778200D03*
Y1727400D03*
Y1829000D03*
Y1879800D03*
Y1930600D03*
Y2032200D03*
Y1981400D03*
G54D26*
X403000Y39250D03*
X400000Y174250D03*
X403000Y321250D03*
X398000Y456250D03*
X401000Y603250D03*
X399000Y739250D03*
X401000Y886250D03*
X399000Y1022250D03*
X401000Y1170250D03*
X398000Y1306250D03*
X401000Y1454250D03*
X399000Y1590250D03*
X402000Y1738250D03*
X399000Y1873250D03*
X401000Y2020250D03*
X399000Y2155250D03*
X445000Y125750D03*
X435000Y247750D03*
X445000Y407750D03*
X433000Y529750D03*
X443000Y689750D03*
X434000Y812750D03*
X443000Y972750D03*
X434000Y1095750D03*
X443000Y1256750D03*
X433000Y1379750D03*
X443000Y1540750D03*
X434000Y1663750D03*
X444000Y1824750D03*
X434000Y1946750D03*
X443000Y2106750D03*
X434000Y2228750D03*
G54D36*
X913900Y1010000D03*
Y2083000D03*
G54D18*
X52000Y1147500D03*
Y1128500D03*
X478000Y38500D03*
Y57500D03*
Y166500D03*
Y185500D03*
Y320500D03*
Y339500D03*
X476000Y448500D03*
Y467500D03*
Y602500D03*
Y621500D03*
X477000Y731500D03*
Y750500D03*
X476000Y885500D03*
Y904500D03*
X477000Y1014500D03*
Y1033500D03*
X476000Y1169500D03*
Y1188500D03*
Y1298500D03*
Y1317500D03*
Y1453500D03*
Y1472500D03*
X477000Y1582500D03*
Y1601500D03*
Y1737500D03*
Y1756500D03*
Y1865500D03*
Y1884500D03*
X476000Y2019500D03*
Y2038500D03*
X477000Y2147500D03*
Y2166500D03*
G54D27*
X403000Y76750D03*
X400000Y211750D03*
X403000Y358750D03*
X398000Y493750D03*
X401000Y640750D03*
X399000Y776750D03*
X401000Y923750D03*
X399000Y1059750D03*
X401000Y1207750D03*
X398000Y1343750D03*
X401000Y1491750D03*
X399000Y1627750D03*
X402000Y1775750D03*
X399000Y1910750D03*
X401000Y2057750D03*
X399000Y2192750D03*
X445000Y88250D03*
X435000Y210250D03*
X445000Y370250D03*
X433000Y492250D03*
X443000Y652250D03*
X434000Y775250D03*
X443000Y935250D03*
X434000Y1058250D03*
X443000Y1219250D03*
X433000Y1342250D03*
X443000Y1503250D03*
X434000Y1626250D03*
X444000Y1787250D03*
X434000Y1909250D03*
X443000Y2069250D03*
X434000Y2191250D03*
G54D19*
X73000Y1259500D03*
G54D37*
X996800Y53930D03*
Y2276430D03*
G54D28*
X431500Y47000D03*
X454500Y56500D03*
Y37500D03*
X432500Y176000D03*
X455500Y185500D03*
Y166500D03*
X431500Y329000D03*
X454500Y338500D03*
Y319500D03*
X430500Y458000D03*
X453500Y467500D03*
Y448500D03*
X452500Y601500D03*
X429500Y611000D03*
X452500Y620500D03*
X454500Y731500D03*
X431500Y741000D03*
X454500Y750500D03*
X429500Y894000D03*
X452500Y903500D03*
Y884500D03*
X431500Y1024000D03*
X454500Y1033500D03*
Y1014500D03*
X429500Y1178000D03*
X452500Y1187500D03*
Y1168500D03*
X430500Y1308000D03*
X453500Y1317500D03*
Y1298500D03*
X429500Y1462000D03*
X452500Y1471500D03*
Y1452500D03*
X431500Y1592000D03*
X454500Y1601500D03*
Y1582500D03*
X430500Y1746000D03*
X453500Y1755500D03*
Y1736500D03*
X431500Y1875000D03*
X454500Y1884500D03*
Y1865500D03*
X452500Y2018500D03*
X429500Y2028000D03*
X452500Y2037500D03*
X454500Y2147500D03*
X431500Y2157000D03*
X454500Y2166500D03*
G54D29*
X552000Y79000D03*
Y361000D03*
X550000Y643000D03*
Y926000D03*
Y1210000D03*
Y1494000D03*
X551000Y1778000D03*
X550000Y2060000D03*
X668000Y214000D03*
X666000Y496000D03*
X667000Y779000D03*
Y1062000D03*
X666000Y1346000D03*
X667000Y1630000D03*
Y1913000D03*
Y2195000D03*
M02*
