G04 ================== begin FILE IDENTIFICATION RECORD ==================*
G04 Layout Name:  D:/Project/Circuit/ORCAD/KPRD/04v1/pcb/KPRD_04v1.brd*
G04 Film Name:    TOP*
G04 File Format:  Gerber RS274X*
G04 File Origin:  Cadence Allegro 16.6-S018*
G04 Origin Date:  Sat Nov 09 13:40:19 2013*
G04 *
G04 Layer:  ETCH/TOP*
G04 Layer:  PIN/TOP*
G04 Layer:  VIA CLASS/TOP*
G04 *
G04 Offset:    (0.000 0.000)*
G04 Mirror:    No*
G04 Mode:      Positive*
G04 Rotation:  0*
G04 FullContactRelief:  No*
G04 UndefLineWidth:     0.250*
G04 ================== end FILE IDENTIFICATION RECORD ====================*
%FSLAX34Y34*MOMM*%
%IR0*IPPOS*OFA0.00000B0.00000*MIA0B0*SFA1.00000B1.00000*%
%ADD29R,1.X.6*%
%ADD11C,1.*%
%ADD22R,.6X1.05*%
%ADD36C,5.*%
%ADD32C,1.4*%
%ADD10C,4.2*%
%ADD34C,2.5*%
%ADD13C,1.6*%
%ADD18R,.95X1.4*%
%ADD19R,1.4X.95*%
%ADD14C,1.55*%
%ADD33R,1.4X1.4*%
%ADD27C,1.85*%
%ADD17R,2.05X2.05*%
%ADD31C,1.95*%
%ADD21R,.95X1.9*%
%ADD12R,1.55X1.55*%
%ADD28R,1.85X1.85*%
%ADD30R,1.95X1.95*%
%ADD15R,1.1X1.4*%
%ADD24R,1.4X1.1*%
%ADD26O,1.5X2.15*%
%ADD16R,1.1X2.7*%
%ADD23R,3.6X1.2*%
%ADD35R,2.5X2.5*%
%ADD25R,1.75X1.*%
%ADD20R,3.2X1.9*%
%ADD37C,.3*%
%ADD38C,.4*%
%ADD39C,.5*%
%ADD40C,.6*%
%ADD41C,.8*%
G75*
%LPD*%
G75*
G36*
G01X253480Y678060D02*
Y555940D01*
G02X252890Y554530I-1999J8D01*
G01X248470Y550110D01*
G02X247060Y549520I-1418J1409D01*
G01X242030D01*
X241630Y549710D01*
G03Y534290I-3630J-7710D01*
G01X242030Y534480D01*
X250060D01*
G02X251470Y533890I-8J-1999D01*
G01X252890Y532470D01*
G02X253480Y531060I-1409J-1418D01*
G01Y420270D01*
G02X252890Y418860I-1999J8D01*
G01X251140Y417110D01*
G02X249730Y416520I-1418J1409D01*
G01X245030D01*
X244630Y416710D01*
G03Y401290I-3630J-7710D01*
G01X245030Y401480D01*
X249060D01*
G02X250470Y400890I-8J-1999D01*
G01X253410Y397950D01*
G02X254000Y396540I-1409J-1418D01*
G01Y277460D01*
G02X253410Y276050I-1999J8D01*
G01X248300Y270940D01*
G02X246890Y270350I-1418J1409D01*
G01X243830D01*
X243430Y270540D01*
G03Y255120I-3630J-7710D01*
G01X243830Y255310D01*
X251230D01*
G02X252640Y254720I-8J-1999D01*
G01X253410Y253950D01*
G02X254000Y252540I-1409J-1418D01*
G01Y138460D01*
G02X253410Y137050I-1999J8D01*
G01X252470Y136110D01*
G02X251060Y135520I-1418J1409D01*
G01X245030D01*
X244630Y135710D01*
G03Y120290I-3630J-7710D01*
G01X245030Y120480D01*
X252000D01*
G02X254000Y118480I0J-2000D01*
G01Y22830D01*
G02X253410Y21410I-2000J-2D01*
G01X251590Y19590D01*
G02X250170Y19000I-1418J1410D01*
G01X61830D01*
G02X60410Y19590I-2J2000D01*
G01X59590Y20410D01*
G02X59000Y21830I1410J1418D01*
G01Y92730D01*
G02X61000Y94730I2000J0D01*
G01X66320D01*
G03X68320Y96730I0J2000D01*
G01Y118090D01*
G02X68910Y119510I2000J2D01*
G01X70810Y121410D01*
G02X72230Y122000I1418J-1410D01*
G01X93370D01*
G02X94790Y121410I2J-2000D01*
G01X95990Y120210D01*
G02X96580Y118790I-1410J-1418D01*
G01Y96730D01*
G03X98580Y94730I2000J0D01*
G01X115000D01*
G02X117000Y92730I0J-2000D01*
G01Y64830D01*
G03X117590Y63410I2000J-2D01*
G01X137710Y43290D01*
G03X139130Y42700I1418J1410D01*
G01X176610D01*
X176640Y42670D01*
G03X178060Y42080I1418J1410D01*
G01X201150D01*
X201180Y42110D01*
G02X202600Y42700I1418J-1410D01*
G01X207070D01*
G03X208490Y43290I2J2000D01*
G01X212610Y47410D01*
G02X214030Y48000I1418J-1410D01*
G01X221000D01*
G03X223000Y50000I0J2000D01*
G01Y1651940D01*
X223300Y1652670D01*
X223580Y1652950D01*
Y1794020D01*
X223280Y1794760D01*
X223000Y1795030D01*
Y2231480D01*
G02X225000Y2233480I2000J0D01*
G01X234970D01*
X235370Y2233290D01*
G03X236110Y2232980I3660J7698D01*
G01X236530Y2232830D01*
X253410Y2215950D01*
G02X254000Y2214540I-1409J-1418D01*
G01Y2119460D01*
G02X253410Y2118050I-1999J8D01*
G01X247470Y2112110D01*
G02X246060Y2111520I-1418J1409D01*
G01X243030D01*
X242630Y2111710D01*
G03Y2096290I-3630J-7710D01*
G01X243030Y2096480D01*
X246060D01*
G02X247470Y2095890I-8J-1999D01*
G01X253410Y2089950D01*
G02X254000Y2088540I-1409J-1418D01*
G01Y1975460D01*
G02X253410Y1974050I-1999J8D01*
G01X248970Y1969610D01*
G02X247560Y1969020I-1418J1409D01*
G01X243030D01*
X242630Y1969210D01*
G03Y1953790I-3630J-7710D01*
G01X243030Y1953980D01*
X246560D01*
G02X247970Y1953390I-8J-1999D01*
G01X253410Y1947950D01*
G02X254000Y1946540I-1409J-1418D01*
G01Y1834460D01*
G02X253410Y1833050I-1999J8D01*
G01X252470Y1832110D01*
G02X251060Y1831520I-1418J1409D01*
G01X244030D01*
X243630Y1831710D01*
G03Y1816290I-3630J-7710D01*
G01X244030Y1816480D01*
X248060D01*
G02X249470Y1815890I-8J-1999D01*
G01X253410Y1811950D01*
G02X254000Y1810540I-1409J-1418D01*
G01Y1689460D01*
G02X253410Y1688050I-1999J8D01*
G01X252890Y1687530D01*
G02X251480Y1686940I-1418J1409D01*
G01X243420D01*
X243020Y1687130D01*
G03Y1671710I-3630J-7710D01*
G01X243420Y1671900D01*
X251640D01*
G02X253050Y1671310I-8J-1999D01*
G01X253410Y1670950D01*
G02X254000Y1669540I-1409J-1418D01*
G01Y1553460D01*
G02X253410Y1552050I-1999J8D01*
G01X251470Y1550110D01*
G02X250060Y1549520I-1418J1409D01*
G01X243030D01*
X242630Y1549710D01*
G03Y1534290I-3630J-7710D01*
G01X243030Y1534480D01*
X249060D01*
G02X250470Y1533890I-8J-1999D01*
G01X253410Y1530950D01*
G02X254000Y1529540I-1409J-1418D01*
G01Y1405470D01*
G02X253410Y1404060I-1999J8D01*
G01X251770Y1402420D01*
G02X250360Y1401830I-1418J1409D01*
G01X241750D01*
X241350Y1402020D01*
G03Y1386600I-3630J-7710D01*
G01X241750Y1386790D01*
X245610D01*
X246780Y1385620D01*
Y1385420D01*
X247080Y1384680D01*
X253410Y1378350D01*
G02X254000Y1376940I-1409J-1418D01*
G01Y1270460D01*
G02X253410Y1269050I-1999J8D01*
G01X252470Y1268110D01*
G02X251060Y1267520I-1418J1409D01*
G01X243030D01*
X242630Y1267710D01*
G03Y1252290I-3630J-7710D01*
G01X243030Y1252480D01*
X251060D01*
G02X252470Y1251890I-8J-1999D01*
G01X253410Y1250950D01*
G02X254000Y1249540I-1409J-1418D01*
G01Y1123460D01*
G02X253410Y1122050I-1999J8D01*
G01X249500Y1118140D01*
G02X248090Y1117550I-1418J1409D01*
G01X243030D01*
X242630Y1117740D01*
G03Y1102320I-3630J-7710D01*
G01X243030Y1102510D01*
X252030D01*
G02X253440Y1101920I-8J-1999D01*
G01X253700Y1101670D01*
X254000Y1100940D01*
Y985860D01*
G02X253410Y984450I-1999J8D01*
G01X253200Y984240D01*
X252790Y983990D01*
X252550Y983920D01*
G03X250130Y982650I2227J-7185D01*
G02X248890Y982220I-1239J1569D01*
G01X243030D01*
X242630Y982410D01*
G03Y966990I-3630J-7710D01*
G01X243030Y967180D01*
X253260D01*
X253990Y966880D01*
X254000Y966870D01*
Y836490D01*
G02X253410Y835080I-1999J8D01*
G01X251470Y833140D01*
G02X250060Y832550I-1418J1409D01*
G01X243030D01*
X242630Y832740D01*
G03Y817320I-3630J-7710D01*
G01X243030Y817510D01*
X251030D01*
G02X252440Y816920I-8J-1999D01*
G01X253410Y815950D01*
G02X254000Y814540I-1409J-1418D01*
G01Y700460D01*
G02X253410Y699050I-1999J8D01*
G01X251470Y697110D01*
G02X250060Y696520I-1418J1409D01*
G01X243030D01*
X242630Y696710D01*
G03Y681290I-3630J-7710D01*
G01X243030Y681480D01*
X250060D01*
G02X251470Y680890I-8J-1999D01*
G01X252890Y679470D01*
G02X253480Y678060I-1409J-1418D01*
G37*
G36*
G01X31510Y857190D02*
X31190Y857510D01*
G02X30600Y858930I1410J1418D01*
G01Y916890D01*
G02X31160Y918280I2001J2D01*
G01X31980Y919130D01*
G02X33290Y919730I1431J-1395D01*
G03X33180Y968670I-1633J24466D01*
G02X31300Y970670I121J1997D01*
G01Y1016530D01*
G02X33300Y1018530I2000J0D01*
G01X36770D01*
G03X38770Y1020530I0J2000D01*
G01Y1034070D01*
G03X36770Y1036070I-2000J0D01*
G01X33300D01*
G02X31300Y1038070I0J2000D01*
G01Y1042840D01*
X32070Y1043900D01*
X32700Y1044090D01*
G03Y1061310I-2700J8610D01*
G01X32070Y1061500D01*
X31300Y1062560D01*
Y1132700D01*
G02X33300Y1134700I2000J0D01*
G01X41980D01*
G02X43980Y1132700I0J-2000D01*
G01Y1124730D01*
G03X45980Y1122730I2000J0D01*
G01X58020D01*
G03X60020Y1124730I0J2000D01*
G01Y1132700D01*
G02X62020Y1134700I2000J0D01*
G01X62600D01*
G03X64600Y1136700I0J2000D01*
G01Y1145600D01*
G02X66600Y1147600I2000J0D01*
G01X84870D01*
G02X86290Y1147010I2J-2000D01*
G01X86310Y1146990D01*
G02X86900Y1145570I-1410J-1418D01*
G01Y1143020D01*
G02X84900Y1141020I-2000J0D01*
G01X77980D01*
G03X75980Y1139020I0J-2000D01*
G01Y1126980D01*
G03X77980Y1124980I2000J0D01*
G01X84900D01*
G02X86900Y1122980I0J-2000D01*
G01Y1076700D01*
G02X84900Y1074700I-2000J0D01*
G01X81580D01*
G03X80160Y1074110I-2J-2000D01*
G01X79490Y1073440D01*
G03X78900Y1072020I1410J-1418D01*
G01Y1071690D01*
X77730Y1070520D01*
X67980D01*
G03X65980Y1068520I0J-2000D01*
G01Y1043480D01*
G03X67980Y1041480I2000J0D01*
G01X78900D01*
Y1041300D01*
X83770Y1036430D01*
G02X84200Y1034250I-1417J-1412D01*
G01X83970Y1033690D01*
X82970Y1033020D01*
X80980D01*
G03X78980Y1031020I0J-2000D01*
G01Y1018980D01*
G03X80980Y1016980I2000J0D01*
G01X84900D01*
G02X86900Y1014980I0J-2000D01*
G01Y1012020D01*
G02X84900Y1010020I-2000J0D01*
G01X80980D01*
G03X78980Y1008020I0J-2000D01*
G01Y995980D01*
G03X80980Y993980I2000J0D01*
G01X84900D01*
G02X86900Y991980I0J-2000D01*
G01Y919920D01*
G02X84900Y917920I-2000J0D01*
G01X83180D01*
G03X82730Y917940I-514J-6497D01*
G01X61150D01*
X60420Y917640D01*
X60380Y917600D01*
X52000D01*
G03X50000Y915600I0J-2000D01*
G01Y903110D01*
G02X49360Y901640I-2000J-4D01*
G03Y885160I7690J-8240D01*
G02X50000Y883690I-1360J-1466D01*
G01Y881430D01*
G03X50590Y880010I2000J-2D01*
G01X50800Y879800D01*
G02X51380Y878400I-1420J-1408D01*
G01X51390Y875170D01*
X51100Y874450D01*
X50810Y874160D01*
G03X52040Y860800I6240J-6162D01*
G01X52450Y860520D01*
X52900Y859650D01*
Y858600D01*
G02X50900Y856600I-2000J0D01*
G01X32930D01*
G02X31510Y857190I-2J2000D01*
G37*
G36*
G01X104630Y1247920D02*
X105070Y1214630D01*
G02X103070Y1212600I-1999J-31D01*
G01X83500D01*
G03X81500Y1210600I0J-2000D01*
G01Y1190800D01*
G02X79500Y1188800I-2000J0D01*
G01X65100D01*
G02X63100Y1190800I0J2000D01*
G01Y1209000D01*
G03X61100Y1211000I-2000J0D01*
G01X58270D01*
Y1211520D01*
X43600D01*
G02X41600Y1213520I0J2000D01*
G01Y1247800D01*
G02X43600Y1249800I2000J0D01*
G01X51200Y1249820D01*
G03X53200Y1251820I0J2000D01*
G01Y1508070D01*
G02X53790Y1509490I2000J2D01*
G01X54050Y1509750D01*
G03X54150Y1509850I-1364J1464D01*
G01X70290Y1528470D01*
G02X72290Y1529100I1512J-1311D01*
G01X76980Y1527910D01*
G02X78230Y1526960I-488J-1939D01*
G01X78430Y1526600D01*
X78520Y1525800D01*
X71980Y1503880D01*
G03X71900Y1503310I1921J-560D01*
G01Y1343930D01*
G02X71310Y1342510I-2000J-2D01*
G01X65290Y1336490D01*
G03X64700Y1335070I1410J-1418D01*
G01Y1295600D01*
X64950D01*
X68300Y1292250D01*
X68350D01*
X92010Y1268590D01*
G02X92600Y1267170I-1410J-1418D01*
G01Y1251880D01*
G03X94600Y1249880I2000J0D01*
G01X102620Y1249900D01*
G02X104630Y1247920I8J-2002D01*
G37*
G36*
G01X156680Y2033830D02*
X150330Y2040180D01*
X146500Y2035000D01*
Y2027000D01*
X150330Y2021820D01*
X156680Y2028170D01*
G03Y2033830I-2830J2830D01*
G37*
G36*
G01X164940Y57780D02*
X158820Y51660D01*
X164500Y50220D01*
X167500D01*
X173180Y51660D01*
X167060Y57780D01*
G03X164940I-1060J-1060D01*
G37*
G36*
G01Y339780D02*
X158820Y333660D01*
X164500Y332220D01*
X167500D01*
X173180Y333660D01*
X167060Y339780D01*
G03X164940I-1060J-1060D01*
G37*
G36*
G01X163940Y472780D02*
X157820Y466660D01*
X163500Y465220D01*
X166500D01*
X172180Y466660D01*
X166060Y472780D01*
G03X163940I-1060J-1060D01*
G37*
G36*
G01X162940Y621780D02*
X156820Y615660D01*
X162500Y614220D01*
X165500D01*
X171180Y615660D01*
X165060Y621780D01*
G03X162940I-1060J-1060D01*
G37*
G36*
G01X164940Y755780D02*
X158820Y749660D01*
X164500Y748220D01*
X167500D01*
X173180Y749660D01*
X167060Y755780D01*
G03X164940I-1060J-1060D01*
G37*
G36*
G01X162940Y904780D02*
X156820Y898660D01*
X162500Y897220D01*
X165500D01*
X171180Y898660D01*
X165060Y904780D01*
G03X162940I-1060J-1060D01*
G37*
G36*
G01X209490Y952890D02*
X205000Y948400D01*
X213490Y941850D01*
Y952890D01*
X209490D01*
G37*
G36*
G01X164940Y1038780D02*
X158820Y1032660D01*
X164500Y1031220D01*
X167500D01*
X173180Y1032660D01*
X167060Y1038780D01*
G03X164940I-1060J-1060D01*
G37*
G36*
G01X163940Y1322780D02*
X157820Y1316660D01*
X163500Y1315220D01*
X166500D01*
X172180Y1316660D01*
X166060Y1322780D01*
G03X163940I-1060J-1060D01*
G37*
G36*
G01X162940Y1472680D02*
X156820Y1466560D01*
X162500Y1465120D01*
X165500D01*
X171180Y1466560D01*
X165060Y1472680D01*
G03X162940I-1060J-1060D01*
G37*
G36*
G01X210490Y1520890D02*
X206000Y1516400D01*
X214490Y1509850D01*
Y1520890D01*
X210490D01*
G37*
G36*
G01X164940Y1606780D02*
X158820Y1600660D01*
X164500Y1599220D01*
X167500D01*
X173180Y1600660D01*
X167060Y1606780D01*
G03X164940I-1060J-1060D01*
G37*
G36*
G01X163940Y1756780D02*
X157820Y1750660D01*
X163500Y1749220D01*
X166500D01*
X172180Y1750660D01*
X166060Y1756780D01*
G03X163940I-1060J-1060D01*
G37*
G36*
G01X211490Y1804890D02*
X207000Y1800400D01*
X215490Y1793850D01*
Y1804890D01*
X211490D01*
G37*
G36*
G01X164940Y1889780D02*
X158820Y1883660D01*
X164500Y1882220D01*
X167500D01*
X173180Y1883660D01*
X167060Y1889780D01*
G03X164940I-1060J-1060D01*
G37*
G36*
G01X210490Y1937890D02*
X206000Y1933400D01*
X214490Y1926850D01*
Y1937890D01*
X210490D01*
G37*
G36*
G01X209490Y2086490D02*
X205000Y2082000D01*
X213490Y2075450D01*
Y2086490D01*
X209490D01*
G37*
G36*
G01X861510Y301490D02*
X866000Y297000D01*
X871960Y304490D01*
X861510D01*
Y301490D01*
G37*
%LPC*%
G75*
G36*
G01X75680Y114770D02*
X89220D01*
G02X91220Y112770I0J-2000D01*
G01Y99230D01*
G02X89220Y97230I-2000J0D01*
G01X75680D01*
G02X73680Y99230I0J2000D01*
G01Y112770D01*
G02X75680Y114770I2000J0D01*
G37*
G36*
G01X49230Y1107270D02*
X67770D01*
G02X69770Y1105270I0J-2000D01*
G01Y1086730D01*
G02X67770Y1084730I-2000J0D01*
G01X49230D01*
G02X47230Y1086730I0J2000D01*
G01Y1105270D01*
G02X49230Y1107270I2000J0D01*
G37*
%LPD*%
G75*
G54D10*
X31650Y55200D03*
Y944200D03*
G54D20*
X73000Y1259500D03*
G54D11*
X33000Y846000D03*
X67000Y1221000D03*
X83000D03*
Y1235000D03*
X67000D03*
X51000D03*
X96000Y1281900D03*
X89800Y1335700D03*
X238900Y67800D03*
X241000Y128000D03*
X238980Y196350D03*
X239800Y262830D03*
X238900Y351000D03*
X241000Y409000D03*
X238000Y542000D03*
X237700Y483600D03*
X237200Y631800D03*
X239000Y689000D03*
X238700Y767000D03*
X239000Y825030D03*
X237700Y915000D03*
X239000Y974700D03*
X237700Y1049400D03*
X239000Y1110030D03*
X237200Y1199000D03*
X239000Y1260000D03*
X237500Y1333400D03*
X237720Y1394310D03*
X237500Y1483700D03*
X239000Y1542000D03*
X237500Y1617700D03*
X239390Y1679420D03*
X237700Y1767200D03*
X240000Y1824000D03*
X237700Y1900100D03*
X239000Y1961500D03*
X236600Y2049100D03*
X239000Y2104000D03*
X238700Y2182500D03*
X239000Y2241000D03*
X344000Y56000D03*
X324000Y52000D03*
X315000Y122000D03*
X324000Y139000D03*
X339000Y201000D03*
X322600Y183600D03*
X309600Y249000D03*
X323000Y265000D03*
X344000Y338000D03*
X324000Y334000D03*
X315000Y404000D03*
X337000Y483000D03*
X320600Y465600D03*
X324000Y421000D03*
X307600Y531000D03*
X321000Y547000D03*
X342000Y620000D03*
X322000Y616000D03*
X313000Y686000D03*
X322000Y703000D03*
X338000Y766000D03*
X321600Y748600D03*
X308600Y814000D03*
X322000Y830000D03*
X342000Y903000D03*
X322000Y899000D03*
X313000Y969000D03*
X322000Y986000D03*
X321600Y1031600D03*
X338000Y1049000D03*
X322000Y1113000D03*
X308600Y1097000D03*
X342000Y1187000D03*
X322000Y1183000D03*
X313000Y1253000D03*
X320600Y1315600D03*
X322000Y1270000D03*
X337000Y1333000D03*
X307600Y1381000D03*
X321000Y1397000D03*
X342000Y1471000D03*
X322000Y1467000D03*
X313000Y1537000D03*
X322000Y1554000D03*
X338000Y1617000D03*
X321600Y1599600D03*
X308600Y1665000D03*
X322000Y1681000D03*
X343000Y1755000D03*
X323000Y1751000D03*
X314000Y1821000D03*
X323000Y1838000D03*
X338000Y1900000D03*
X321600Y1882600D03*
X308600Y1948000D03*
X322000Y1964000D03*
X342000Y2037000D03*
X322000Y2033000D03*
X313000Y2103000D03*
X322000Y2120000D03*
X321600Y2164600D03*
X338000Y2182000D03*
X322000Y2246000D03*
X308600Y2230000D03*
X385000Y58000D03*
X380000Y191000D03*
X385000Y340000D03*
X378000Y473000D03*
X383000Y622000D03*
X379000Y756000D03*
X383000Y905000D03*
X379000Y1039000D03*
X383000Y1189000D03*
X378000Y1323000D03*
X383000Y1473000D03*
X379000Y1607000D03*
X384000Y1757000D03*
X379000Y1890000D03*
X383000Y2039000D03*
X379000Y2172000D03*
X517000Y77000D03*
Y359000D03*
X515000Y641000D03*
Y924000D03*
Y1208000D03*
Y1492000D03*
X516000Y1776000D03*
X515000Y2058000D03*
G54D30*
X552000Y79000D03*
Y361000D03*
X550000Y643000D03*
Y926000D03*
Y1210000D03*
Y1494000D03*
X551000Y1778000D03*
X550000Y2060000D03*
X668000Y214000D03*
X666000Y496000D03*
X667000Y779000D03*
Y1062000D03*
X666000Y1346000D03*
X667000Y1630000D03*
Y1913000D03*
Y2195000D03*
G54D12*
X30000Y1027300D03*
X82450Y106000D03*
X57050D03*
X82450Y334600D03*
X57050D03*
X82450Y588600D03*
X57050D03*
X82450Y842600D03*
X57050D03*
X107850Y106000D03*
Y334600D03*
Y588600D03*
Y842600D03*
X403000Y134700D03*
X401000Y272700D03*
X403000Y416700D03*
X399000Y554700D03*
X401000Y698700D03*
X400000Y837700D03*
X401000Y981700D03*
X400000Y1120700D03*
X401000Y1265700D03*
X399000Y1404700D03*
X401000Y1549700D03*
X400000Y1688700D03*
X402000Y1833700D03*
X400000Y1971700D03*
X401000Y2115700D03*
X400000Y2253700D03*
G54D21*
X96000Y1198500D03*
X73000D03*
X50000D03*
G54D40*
G01X101880Y915380D02*
X97900Y911400D01*
X82750D01*
X82730Y911420D01*
G01D02*
X82450Y911140D01*
Y893400D01*
G01X82730Y911420D02*
X63420D01*
X57050Y905050D01*
Y893400D01*
G01X50000Y1198500D02*
Y1178500D01*
X49500Y1178000D01*
Y1168000D01*
G01X52000Y1147500D02*
Y1155500D01*
X49500Y1158000D01*
Y1168000D01*
G01X59800Y1309800D02*
X60000Y1310000D01*
G01D02*
X76500D01*
G01X102500Y1002000D02*
Y985830D01*
X103250Y985080D01*
Y915380D01*
X101880D01*
G01D02*
X107850Y909410D01*
Y893400D01*
G01X102500Y1025000D02*
Y1002000D01*
G01X103500Y1056000D02*
Y1036000D01*
X102500Y1035000D01*
Y1025000D01*
G01X101500Y1096000D02*
Y1074500D01*
X103500Y1072500D01*
Y1056000D01*
G01X99500Y1133000D02*
Y1111250D01*
X101500Y1109250D01*
Y1096000D01*
G01X108500Y1354000D02*
X119900D01*
X120000Y1353900D01*
G01X431500Y47000D02*
X423010D01*
X415260Y39250D01*
X403000D01*
G01X432500Y176000D02*
X414010D01*
X412260Y174250D01*
X400000D01*
G01X431500Y329000D02*
X423010D01*
X415260Y321250D01*
X403000D01*
G01X430500Y458000D02*
X412010D01*
X410260Y456250D01*
X398000D01*
G01X429500Y611000D02*
X421010D01*
X413260Y603250D01*
X401000D01*
G01X431500Y741000D02*
X413010D01*
X411260Y739250D01*
X399000D01*
G01X429500Y894000D02*
X421010D01*
X413260Y886250D01*
X401000D01*
G01X431500Y1024000D02*
X413010D01*
X411260Y1022250D01*
X399000D01*
G01X429500Y1178000D02*
X421010D01*
X413260Y1170250D01*
X401000D01*
G01X430500Y1308000D02*
X412010D01*
X410260Y1306250D01*
X398000D01*
G01X429500Y1462000D02*
X421010D01*
X413260Y1454250D01*
X401000D01*
G01X431500Y1592000D02*
X413010D01*
X411260Y1590250D01*
X399000D01*
G01X430500Y1746000D02*
X422010D01*
X414260Y1738250D01*
X402000D01*
G01X431500Y1875000D02*
X413010D01*
X411260Y1873250D01*
X399000D01*
G01X429500Y2028000D02*
X421010D01*
X413260Y2020250D01*
X401000D01*
G01X431500Y2157000D02*
X413010D01*
X411260Y2155250D01*
X399000D01*
G01X478000Y57500D02*
X488000D01*
X488500Y57000D01*
X500000D01*
X512500Y44500D01*
X586550D01*
X604050Y62000D01*
X651400D01*
G01X478000Y38500D02*
X463500D01*
X462500Y37500D01*
X454500D01*
G01X478000Y185500D02*
X490500D01*
X491000Y186000D01*
X514050D01*
X549450Y221400D01*
X578000D01*
G01X478000Y166500D02*
X455500D01*
G01X478000Y339500D02*
X488000D01*
X488500Y339000D01*
X500000D01*
X512500Y326500D01*
X586550D01*
X604050Y344000D01*
X651400D01*
G01X478000Y320500D02*
X463500D01*
X462500Y319500D01*
X454500D01*
G01X476000Y467500D02*
X488500D01*
X489000Y468000D01*
X512050D01*
X547450Y503400D01*
X576000D01*
G01X476000Y448500D02*
X453500D01*
G01X476000Y602500D02*
X461500D01*
X460500Y601500D01*
X452500D01*
G01X476000Y621500D02*
X486000D01*
X486500Y621000D01*
X498000D01*
X510500Y608500D01*
X584550D01*
X602050Y626000D01*
X649400D01*
G01X477000Y731500D02*
X454500D01*
G01X477000Y750500D02*
X489500D01*
X490000Y751000D01*
X513050D01*
X548450Y786400D01*
X577000D01*
G01X476000Y904500D02*
X486000D01*
X486500Y904000D01*
X498000D01*
X510500Y891500D01*
X584550D01*
X602050Y909000D01*
X649400D01*
G01X476000Y885500D02*
X461500D01*
X460500Y884500D01*
X452500D01*
G01X477000Y1033500D02*
X489500D01*
X490000Y1034000D01*
X513050D01*
X548450Y1069400D01*
X577000D01*
G01X477000Y1014500D02*
X454500D01*
G01X476000Y1169500D02*
X461500D01*
X460500Y1168500D01*
X452500D01*
G01X476000Y1188500D02*
X486000D01*
X486500Y1188000D01*
X498000D01*
X510500Y1175500D01*
X584550D01*
X602050Y1193000D01*
X649400D01*
G01X476000Y1298500D02*
X453500D01*
G01X476000Y1317500D02*
X488500D01*
X489000Y1318000D01*
X512050D01*
X547450Y1353400D01*
X576000D01*
G01X476000Y1472500D02*
X486000D01*
X486500Y1472000D01*
X498000D01*
X510500Y1459500D01*
X584550D01*
X602050Y1477000D01*
X649400D01*
G01X476000Y1453500D02*
X461500D01*
X460500Y1452500D01*
X452500D01*
G01X477000Y1601500D02*
X489500D01*
X490000Y1602000D01*
X513050D01*
X548450Y1637400D01*
X577000D01*
G01X477000Y1582500D02*
X454500D01*
G01X477000Y1756500D02*
X487000D01*
X487500Y1756000D01*
X499000D01*
X511500Y1743500D01*
X585550D01*
X603050Y1761000D01*
X650400D01*
G01X477000Y1737500D02*
X462500D01*
X461500Y1736500D01*
X453500D01*
G01X477000Y1884500D02*
X489500D01*
X490000Y1885000D01*
X513050D01*
X548450Y1920400D01*
X577000D01*
G01X477000Y1865500D02*
X454500D01*
G01X476000Y2019500D02*
X461500D01*
X460500Y2018500D01*
X452500D01*
G01X476000Y2038500D02*
X486000D01*
X486500Y2038000D01*
X498000D01*
X510500Y2025500D01*
X584550D01*
X602050Y2043000D01*
X649400D01*
G01X477000Y2147500D02*
X454500D01*
G01X477000Y2166500D02*
X489500D01*
X490000Y2167000D01*
X513050D01*
X548450Y2202400D01*
X577000D01*
G01X517000Y77000D02*
Y98000D01*
X525000Y106000D01*
X671000D01*
X697000Y132000D01*
G01X517000Y359000D02*
Y380000D01*
X525000Y388000D01*
X671000D01*
X697000Y414000D01*
G01X515000Y641000D02*
Y662000D01*
X523000Y670000D01*
X669000D01*
X695000Y696000D01*
G01X515000Y924000D02*
Y945000D01*
X523000Y953000D01*
X669000D01*
X695000Y979000D01*
G01X515000Y1208000D02*
Y1229000D01*
X523000Y1237000D01*
X669000D01*
X695000Y1263000D01*
G01X515000Y1492000D02*
Y1513000D01*
X523000Y1521000D01*
X669000D01*
X695000Y1547000D01*
G01X516000Y1776000D02*
Y1797000D01*
X524000Y1805000D01*
X670000D01*
X696000Y1831000D01*
G01X515000Y2058000D02*
Y2079000D01*
X523000Y2087000D01*
X669000D01*
X695000Y2113000D01*
G01X867000Y135000D02*
Y159500D01*
X853500Y173000D01*
X758500D01*
X740500Y155000D01*
X578000D01*
X552000Y129000D01*
G01X867000Y441500D02*
X853500Y455000D01*
X758500D01*
X740500Y437000D01*
X578000D01*
X552000Y411000D01*
G01X865000Y699000D02*
Y723500D01*
X851500Y737000D01*
X756500D01*
X738500Y719000D01*
X576000D01*
X550000Y693000D01*
G01X865000Y982000D02*
Y1006500D01*
X851500Y1020000D01*
X756500D01*
X738500Y1002000D01*
X576000D01*
X550000Y976000D01*
G01X865000Y1266000D02*
Y1290500D01*
X851500Y1304000D01*
X756500D01*
X738500Y1286000D01*
X576000D01*
X550000Y1260000D01*
G01X865000Y1550000D02*
Y1574500D01*
X851500Y1588000D01*
X756500D01*
X738500Y1570000D01*
X576000D01*
X550000Y1544000D01*
G01X866000Y1834000D02*
Y1858500D01*
X852500Y1872000D01*
X757500D01*
X739500Y1854000D01*
X577000D01*
X551000Y1828000D01*
G01X865000Y2116000D02*
Y2140500D01*
X851500Y2154000D01*
X756500D01*
X738500Y2136000D01*
X576000D01*
X550000Y2110000D01*
G01X626000Y36600D02*
X683600D01*
X748000Y101000D01*
X855000D01*
X867000Y89000D01*
Y67000D01*
G01X866000Y206000D02*
Y227000D01*
X854000Y239000D01*
X693000D01*
X668000Y214000D01*
G01X866000Y297000D02*
X854750Y308250D01*
X712250D01*
X668000Y264000D01*
G01X626000Y318600D02*
X683600D01*
X748000Y383000D01*
X855000D01*
X867000Y371000D01*
Y349000D01*
G01X864000Y488000D02*
Y509000D01*
X852000Y521000D01*
X691000D01*
X666000Y496000D01*
G01X624000Y600600D02*
X681600D01*
X746000Y665000D01*
X853000D01*
X865000Y653000D01*
Y631000D01*
G01X864000Y556000D02*
Y579000D01*
X852750Y590250D01*
X710250D01*
X666000Y546000D01*
G01X865000Y771000D02*
Y792000D01*
X853000Y804000D01*
X692000D01*
X667000Y779000D01*
G01X865000Y839000D02*
Y862000D01*
X853750Y873250D01*
X711250D01*
X667000Y829000D01*
G01X624000Y883600D02*
X681600D01*
X746000Y948000D01*
X853000D01*
X865000Y936000D01*
Y914000D01*
G01Y1054000D02*
Y1075000D01*
X853000Y1087000D01*
X692000D01*
X667000Y1062000D01*
G01X865000Y1122000D02*
Y1145000D01*
X853750Y1156250D01*
X711250D01*
X667000Y1112000D01*
G01X624000Y1167600D02*
X681600D01*
X746000Y1232000D01*
X853000D01*
X865000Y1220000D01*
Y1198000D01*
G01X864000Y1338000D02*
Y1359000D01*
X852000Y1371000D01*
X691000D01*
X666000Y1346000D01*
G01X864000Y1425500D02*
Y1429000D01*
X852750Y1440250D01*
X710250D01*
X666000Y1396000D01*
G01X624000Y1451600D02*
X681600D01*
X746000Y1516000D01*
X853000D01*
X865000Y1504000D01*
Y1482000D01*
G01Y1622000D02*
Y1643000D01*
X853000Y1655000D01*
X692000D01*
X667000Y1630000D01*
G01X865000Y1690000D02*
Y1713000D01*
X853750Y1724250D01*
X711250D01*
X667000Y1680000D01*
G01X625000Y1735600D02*
X682600D01*
X747000Y1800000D01*
X854000D01*
X866000Y1788000D01*
Y1766000D01*
G01X865000Y1973000D02*
Y1996000D01*
X853750Y2007250D01*
X711250D01*
X667000Y1963000D01*
G01X865000Y1905000D02*
Y1926000D01*
X853000Y1938000D01*
X692000D01*
X667000Y1913000D01*
G01X624000Y2017600D02*
X681600D01*
X746000Y2082000D01*
X853000D01*
X865000Y2070000D01*
Y2048000D01*
G01Y2187000D02*
Y2208000D01*
X853000Y2220000D01*
X692000D01*
X667000Y2195000D01*
G01X865000Y2255000D02*
Y2278000D01*
X853750Y2289250D01*
X711250D01*
X667000Y2245000D01*
G01X867000Y417000D02*
Y441500D01*
G54D31*
X552000Y129000D03*
Y411000D03*
X550000Y693000D03*
Y976000D03*
Y1260000D03*
Y1544000D03*
X551000Y1828000D03*
X550000Y2110000D03*
X668000Y264000D03*
X666000Y546000D03*
X667000Y829000D03*
Y1112000D03*
X666000Y1396000D03*
X667000Y1680000D03*
Y1963000D03*
Y2245000D03*
G54D13*
X30000Y1052700D03*
X403000Y109300D03*
X401000Y247300D03*
X403000Y391300D03*
X399000Y529300D03*
X401000Y673300D03*
X400000Y812300D03*
X401000Y956300D03*
X400000Y1095300D03*
X401000Y1240300D03*
X399000Y1379300D03*
X401000Y1524300D03*
X400000Y1663300D03*
X402000Y1808300D03*
X400000Y1946300D03*
X401000Y2090300D03*
X400000Y2228300D03*
X767000Y67000D03*
Y135000D03*
X766000Y206000D03*
Y274000D03*
X767000Y349000D03*
Y417000D03*
X764000Y488000D03*
Y556000D03*
X765000Y631000D03*
Y699000D03*
Y771000D03*
Y839000D03*
Y914000D03*
Y982000D03*
Y1054000D03*
Y1122000D03*
Y1198000D03*
Y1266000D03*
X764000Y1338000D03*
Y1406000D03*
X765000Y1482000D03*
Y1550000D03*
Y1622000D03*
Y1690000D03*
X766000Y1766000D03*
Y1834000D03*
X765000Y1905000D03*
Y1973000D03*
Y2048000D03*
Y2116000D03*
Y2187000D03*
Y2255000D03*
X867000Y67000D03*
Y135000D03*
X866000Y206000D03*
Y274000D03*
X867000Y349000D03*
Y417000D03*
X864000Y488000D03*
Y556000D03*
X865000Y631000D03*
Y699000D03*
Y771000D03*
Y839000D03*
Y914000D03*
Y982000D03*
Y1054000D03*
Y1122000D03*
Y1198000D03*
Y1266000D03*
X864000Y1338000D03*
Y1406000D03*
X865000Y1482000D03*
Y1550000D03*
Y1622000D03*
Y1690000D03*
X866000Y1766000D03*
Y1834000D03*
X865000Y1905000D03*
Y1973000D03*
Y2048000D03*
Y2116000D03*
Y2187000D03*
Y2255000D03*
G54D22*
X93500Y1385500D03*
X103000Y1408500D03*
X112500Y1385500D03*
G54D41*
G01X82450Y131400D02*
Y120840D01*
G01Y156800D02*
Y182200D01*
G01Y131400D02*
Y156800D01*
G01Y207600D02*
Y233000D01*
G01Y182200D02*
Y207600D01*
G01Y283800D02*
Y309200D01*
G01Y258400D02*
Y283800D01*
G01Y233000D02*
Y258400D01*
G01Y334600D02*
Y360000D01*
G01Y309200D02*
Y334600D01*
G01Y410800D02*
Y436200D01*
G01Y385400D02*
Y410800D01*
G01Y360000D02*
Y385400D01*
G01Y461600D02*
Y487000D01*
G01Y436200D02*
Y461600D01*
G01Y537800D02*
Y563200D01*
G01Y512400D02*
Y537800D01*
G01Y487000D02*
Y512400D01*
G01Y588600D02*
Y614000D01*
G01Y563200D02*
Y588600D01*
G01Y664800D02*
Y690200D01*
G01Y639400D02*
Y664800D01*
G01Y614000D02*
Y639400D01*
G01Y715600D02*
Y741000D01*
G01Y690200D02*
Y715600D01*
G01Y791800D02*
Y817200D01*
G01Y766400D02*
Y791800D01*
G01Y741000D02*
Y766400D01*
G01Y842600D02*
Y868000D01*
G01Y817200D02*
Y842600D01*
G01Y893400D02*
X107850D01*
G01X57050D02*
X82450D01*
G01X107850Y868000D02*
X82450D01*
G01X57050D02*
X82450D01*
G01X73000Y1198500D02*
Y1183500D01*
X68500Y1179000D01*
Y1168000D01*
G01X147500Y1181000D02*
X146500Y1182000D01*
X108580D01*
X105580Y1185000D01*
X104750D01*
X96000Y1193750D01*
Y1198500D01*
G01X56900Y1509800D02*
X75000Y1527900D01*
G01D02*
Y2167000D01*
X149000Y2241000D01*
X239000D01*
G01X147500Y184000D02*
Y58100D01*
X155000Y50600D01*
X166000D01*
G01X166840Y183440D02*
X148060D01*
X147500Y184000D01*
G01D02*
Y332000D01*
G01Y465000D02*
Y332000D01*
G01X166000Y332600D02*
X148100D01*
X147500Y332000D01*
G01Y615000D02*
Y465000D01*
G01X165000Y465600D02*
X148100D01*
X147500Y465000D01*
G01Y750000D02*
Y615000D01*
G01X164000Y614600D02*
X147900D01*
X147500Y615000D01*
G01Y897000D02*
Y750000D01*
G01X166000Y748600D02*
X148900D01*
X147500Y750000D01*
G01X164000Y897600D02*
X148100D01*
X147500Y897000D01*
G01X107850Y893400D02*
X143900D01*
X147500Y897000D01*
G01Y1031000D02*
Y897000D01*
G01X166000Y1031600D02*
X148100D01*
X147500Y1031000D01*
G01Y1181000D02*
Y1031000D01*
G01Y1314000D02*
Y1181000D01*
G01X165090Y1181600D02*
X148100D01*
X147500Y1181000D01*
G01X165000Y1315600D02*
X149100D01*
X147500Y1314000D01*
G01D02*
Y1466000D01*
G01X107500Y1310000D02*
X119500D01*
X120000Y1310500D01*
G01D02*
Y1353900D01*
G01X96000Y1281900D02*
X112000D01*
X120000Y1289900D01*
Y1310500D01*
G01Y1353900D02*
Y1368750D01*
X112500Y1376250D01*
Y1385500D01*
G01X103000Y1440000D02*
Y1408500D01*
G01Y1500000D02*
Y2160800D01*
X157200Y2215000D01*
X165980D01*
G01X147500Y1598000D02*
Y1466000D01*
G01X164000Y1465500D02*
X148000D01*
X147500Y1466000D01*
G01Y1751000D02*
Y1598000D01*
G01X166000Y1599600D02*
X149100D01*
X147500Y1598000D01*
G01Y1882000D02*
Y1751000D01*
G01X165000Y1749600D02*
X148900D01*
X147500Y1751000D01*
G01Y2031000D02*
Y1882000D01*
G01X166000Y1882600D02*
X148100D01*
X147500Y1882000D01*
G01X166000Y2031000D02*
X147500D01*
G01X166000Y2165000D02*
X147500Y2146500D01*
Y2031000D01*
G01X166000Y50600D02*
X189500D01*
G01X208400Y234400D02*
X215070Y227730D01*
Y107070D01*
X209400Y101400D01*
X189500D01*
G01X167000Y183600D02*
X189500D01*
G01X166840Y183440D02*
X167000Y183600D01*
G01X207400Y383400D02*
X215000Y375800D01*
Y241000D01*
X208400Y234400D01*
G01D02*
X189500D01*
G01Y332600D02*
X166000D01*
G01X207320Y516400D02*
X214000Y509720D01*
Y390000D01*
X207400Y383400D01*
G01D02*
X189500D01*
G01X165000Y465600D02*
X187500D01*
G01X208400Y665400D02*
X214030Y659770D01*
Y523110D01*
X207320Y516400D01*
G01D02*
X187500D01*
G01X207400Y799400D02*
X214070Y792730D01*
Y671070D01*
X208400Y665400D01*
G01D02*
X187500D01*
G01X164000Y614600D02*
X187500D01*
G01X205000Y948400D02*
X214000Y939400D01*
Y806000D01*
X207400Y799400D01*
G01D02*
X188500D01*
G01X166000Y748600D02*
X188500D01*
G01X164000Y897600D02*
X187500D01*
G01X207400Y1082400D02*
X210000D01*
X213000Y1079400D01*
Y956400D01*
X205000Y948400D01*
G01D02*
X187500D01*
G01X166000Y1031600D02*
X188500D01*
G01X206400Y1232400D02*
X213070Y1225730D01*
Y1088070D01*
X207400Y1082400D01*
G01D02*
X188500D01*
G01X165090Y1181600D02*
X187500D01*
G01X206000Y1366400D02*
X213000Y1359400D01*
Y1239000D01*
X206400Y1232400D01*
G01D02*
X187500D01*
G01X165000Y1315600D02*
X187500D01*
G01X206000Y1516400D02*
X214000Y1508400D01*
Y1374400D01*
X206000Y1366400D01*
G01D02*
X187500D01*
G01X164000Y1465500D02*
X174650D01*
X174750Y1465600D01*
X187500D01*
G01X210400Y1650400D02*
X214000Y1646800D01*
Y1524400D01*
X206000Y1516400D01*
G01D02*
X187500D01*
G01X166000Y1599600D02*
X188500D01*
G01X207000Y1800400D02*
X216060Y1791340D01*
Y1656060D01*
X210400Y1650400D01*
G01D02*
X188500D01*
G01X165000Y1749600D02*
X188500D01*
G01X206000Y1933400D02*
X215000Y1924400D01*
Y1808400D01*
X207000Y1800400D01*
G01D02*
X188500D01*
G01X166000Y1882600D02*
X188500D01*
G01X205000Y2082000D02*
X214000Y2073000D01*
Y1941400D01*
X206000Y1933400D01*
G01D02*
X188500D01*
G01X187500Y2082400D02*
X187900Y2082000D01*
X205000D01*
G01D02*
X214270Y2091270D01*
Y2209730D01*
X208600Y2215400D01*
X188500D01*
G01X166000Y2031000D02*
X174150D01*
X174750Y2031600D01*
X187500D01*
G01X188500Y2215400D02*
X166380D01*
X165980Y2215000D01*
G01X188500Y2164600D02*
X166400D01*
X166000Y2165000D01*
G01X241000Y128000D02*
X255000D01*
X262000Y135000D01*
Y256000D01*
X255170Y262830D01*
X250830D01*
G01X239800D02*
X250830D01*
G01D02*
X262000Y274000D01*
Y400000D01*
X253000Y409000D01*
G01X241000D02*
X253000D01*
G01D02*
X253670D01*
X261000Y416330D01*
Y535000D01*
X254000Y542000D01*
X251000D01*
G01D02*
X261000Y552000D01*
Y682000D01*
X254000Y689000D01*
G01X238000Y542000D02*
X251000D01*
G01X239000Y689000D02*
X254000D01*
G01D02*
X262000Y697000D01*
Y818000D01*
X254970Y825030D01*
X254000D01*
G01D02*
X262000Y833030D01*
X261800Y833230D01*
Y969700D01*
X254770Y976730D01*
G01X239000Y825030D02*
X254000D01*
G01X254770Y976730D02*
X256330D01*
X262000Y982400D01*
Y1104000D01*
X255970Y1110030D01*
X252030D01*
G01X239000Y974700D02*
X252740D01*
X254770Y976730D01*
G01X252030Y1110030D02*
X262000Y1120000D01*
Y1253000D01*
X255000Y1260000D01*
G01X239000Y1110030D02*
X252030D01*
G01X255000Y1260000D02*
X264000Y1269000D01*
Y1378400D01*
X254300Y1388100D01*
Y1394310D01*
G01X239000Y1260000D02*
X255000D01*
G01X253000Y1542000D02*
X262900Y1532100D01*
Y1402910D01*
X254300Y1394310D01*
G01D02*
X237720D01*
G01X239000Y1542000D02*
X253000D01*
G01D02*
X254000D01*
X263000Y1551000D01*
Y1672000D01*
X255580Y1679420D01*
X255420D01*
G01D02*
X262000Y1686000D01*
Y1814000D01*
X252000Y1824000D01*
G01X239390Y1679420D02*
X255420D01*
G01X252000Y1824000D02*
X255000D01*
X262000Y1831000D01*
Y1950000D01*
X250500Y1961500D01*
G01X240000Y1824000D02*
X252000D01*
G01X250000Y2104000D02*
X262280Y2091720D01*
Y1972280D01*
X251500Y1961500D01*
X250500D01*
G01X239000D02*
X250500D01*
G01X239000Y2104000D02*
X250000D01*
G01D02*
X262500Y2116500D01*
Y2217500D01*
X239000Y2241000D01*
G01X913900Y298800D02*
X901230Y287130D01*
X901000D01*
X886000Y272130D01*
Y142000D01*
X879000Y135000D01*
X867000D01*
G01X866000Y274000D02*
Y297000D01*
G01X913900Y400400D02*
X885500Y373000D01*
Y316500D01*
X866000Y297000D01*
G01X913900Y502000D02*
X890000Y479100D01*
Y464500D01*
X867000Y441500D01*
G01X913900Y603600D02*
X901230Y591930D01*
X899930D01*
X864000Y556000D01*
G01X913900Y705200D02*
X883200D01*
X877000Y699000D01*
X865000D01*
G01X913900Y806800D02*
X880700Y839000D01*
X865000D01*
G01X913900Y908400D02*
X883700Y937600D01*
Y950700D01*
X869440Y964960D01*
Y965560D01*
X865000Y970000D01*
Y982000D01*
G01X913900Y1010000D02*
X888300Y1034600D01*
Y1098700D01*
X865000Y1122000D01*
G01X913900Y1371800D02*
X885000Y1344900D01*
Y1271000D01*
X880000Y1266000D01*
X865000D01*
G01X864000Y1425500D02*
X913900Y1473400D01*
G01X864000Y1406000D02*
Y1425500D01*
G01X913900Y1575000D02*
X891000Y1576000D01*
X865000Y1550000D01*
G01X913900Y1676600D02*
X877400Y1677600D01*
X865000Y1690000D01*
G01X913900Y1778200D02*
X901230Y1790870D01*
Y1798770D01*
X866000Y1834000D01*
G01X913900Y1879800D02*
X901230Y1892470D01*
X896630D01*
X886900Y1902200D01*
Y1946500D01*
X873490Y1959910D01*
Y1964510D01*
X865000Y1973000D01*
G01X913900Y1981400D02*
X889000Y2006300D01*
Y2073000D01*
X866000Y2096000D01*
Y2099000D01*
X865000Y2100000D01*
Y2116000D01*
G01X913900Y2083000D02*
X907000Y2084000D01*
X894000Y2097000D01*
Y2226000D01*
X865000Y2255000D01*
G54D23*
X103000Y1440000D03*
Y1500000D03*
G54D14*
X82450Y156800D03*
Y131400D03*
X57050Y156800D03*
Y131400D03*
X82450Y207600D03*
Y182200D03*
X57050Y207600D03*
Y182200D03*
X82450Y283800D03*
Y258400D03*
Y233000D03*
X57050Y283800D03*
Y258400D03*
Y233000D03*
X82450Y309200D03*
X57050D03*
X82450Y410800D03*
Y385400D03*
Y360000D03*
X57050Y410800D03*
Y385400D03*
Y360000D03*
X82450Y461600D03*
Y436200D03*
X57050Y461600D03*
Y436200D03*
X82450Y537800D03*
Y512400D03*
Y487000D03*
X57050Y537800D03*
Y512400D03*
Y487000D03*
X82450Y563200D03*
X57050D03*
X82450Y664800D03*
Y639400D03*
Y614000D03*
X57050Y664800D03*
Y639400D03*
Y614000D03*
X82450Y741000D03*
Y715600D03*
Y690200D03*
X57050Y741000D03*
Y715600D03*
Y690200D03*
X82450Y791800D03*
Y766400D03*
X57050Y791800D03*
Y766400D03*
X82450Y868000D03*
Y817200D03*
X57050Y868000D03*
Y817200D03*
X82450Y893400D03*
X57050D03*
X107850Y156800D03*
Y131400D03*
Y207600D03*
Y182200D03*
Y283800D03*
Y258400D03*
Y233000D03*
Y309200D03*
Y410800D03*
Y385400D03*
Y360000D03*
Y461600D03*
Y436200D03*
Y537800D03*
Y512400D03*
Y487000D03*
Y563200D03*
Y664800D03*
Y639400D03*
Y614000D03*
Y741000D03*
Y715600D03*
Y690200D03*
Y791800D03*
Y766400D03*
Y868000D03*
Y817200D03*
Y893400D03*
G54D32*
X506000Y220000D03*
X550600Y478000D03*
X504000Y502000D03*
X505000Y785000D03*
Y1068000D03*
X504000Y1352000D03*
X550600Y1328000D03*
X505000Y1636000D03*
Y1919000D03*
Y2201000D03*
X552600Y196000D03*
X578000Y221400D03*
X576000Y503400D03*
X551600Y761000D03*
X577000Y786400D03*
X551600Y1044000D03*
X577000Y1069400D03*
X576000Y1353400D03*
X551600Y1612000D03*
X577000Y1637400D03*
X551600Y1895000D03*
X577000Y1920400D03*
X551600Y2177000D03*
X577000Y2202400D03*
X626000Y87400D03*
X651400Y62000D03*
Y344000D03*
X626000Y369400D03*
X624000Y651400D03*
X649400Y626000D03*
X624000Y934400D03*
X649400Y909000D03*
Y1193000D03*
X624000Y1218400D03*
Y1502400D03*
X649400Y1477000D03*
X650400Y1761000D03*
X625000Y1786400D03*
X624000Y2068400D03*
X649400Y2043000D03*
X697000Y82000D03*
Y364000D03*
X695000Y646000D03*
Y929000D03*
Y1213000D03*
Y1497000D03*
X696000Y1781000D03*
X695000Y2063000D03*
G54D24*
X166000Y84500D03*
Y67500D03*
X167000Y218500D03*
Y201500D03*
X166000Y349500D03*
Y366500D03*
X165000Y500500D03*
Y483500D03*
X164000Y648500D03*
Y631500D03*
X166000Y783500D03*
Y766500D03*
X164000Y931500D03*
Y914500D03*
X166000Y1049500D03*
Y1066500D03*
X164000Y1215500D03*
Y1198500D03*
X165000Y1350500D03*
Y1333500D03*
X164000Y1499500D03*
Y1482500D03*
X166000Y1634500D03*
Y1617500D03*
X165000Y1766500D03*
Y1783500D03*
X166000Y1900500D03*
Y1917500D03*
X164000Y2065500D03*
Y2048500D03*
X166000Y2199500D03*
Y2182500D03*
G54D15*
X85500Y1002000D03*
Y1025000D03*
X82500Y1133000D03*
X102500Y1002000D03*
Y1025000D03*
X99500Y1133000D03*
G54D33*
X506000Y270000D03*
X504000Y552000D03*
X505000Y835000D03*
Y1118000D03*
X504000Y1402000D03*
X505000Y1686000D03*
Y1969000D03*
Y2251000D03*
X603400Y196000D03*
X601400Y478000D03*
X602400Y761000D03*
Y1044000D03*
X601400Y1328000D03*
X602400Y1612000D03*
Y1895000D03*
Y2177000D03*
X626000Y36600D03*
Y318600D03*
X624000Y600600D03*
Y883600D03*
Y1167600D03*
Y1451600D03*
X625000Y1735600D03*
X624000Y2017600D03*
X697000Y132000D03*
Y414000D03*
X695000Y696000D03*
Y979000D03*
Y1263000D03*
Y1547000D03*
X696000Y1831000D03*
X695000Y2113000D03*
G54D25*
X189500Y76000D03*
Y50600D03*
Y101400D03*
Y209000D03*
Y183600D03*
Y234400D03*
Y332600D03*
Y383400D03*
Y358000D03*
X187500Y465600D03*
Y516400D03*
Y491000D03*
Y665400D03*
Y640000D03*
Y614600D03*
X188500Y799400D03*
Y774000D03*
Y748600D03*
X187500Y923000D03*
Y897600D03*
Y948400D03*
X188500Y1057000D03*
Y1031600D03*
Y1082400D03*
X187500Y1181600D03*
Y1232400D03*
Y1207000D03*
Y1315600D03*
Y1366400D03*
Y1341000D03*
Y1491000D03*
Y1465600D03*
Y1516400D03*
X188500Y1625000D03*
Y1599600D03*
Y1650400D03*
Y1749600D03*
Y1800400D03*
Y1775000D03*
Y1882600D03*
Y1933400D03*
Y1908000D03*
X187500Y2082400D03*
Y2057000D03*
Y2031600D03*
X188500Y2215400D03*
Y2190000D03*
Y2164600D03*
X304500Y76000D03*
Y50600D03*
Y101400D03*
Y209000D03*
Y183600D03*
Y234400D03*
Y332600D03*
Y383400D03*
Y358000D03*
X302500Y465600D03*
Y516400D03*
Y491000D03*
Y665400D03*
Y640000D03*
Y614600D03*
X303500Y799400D03*
Y774000D03*
Y748600D03*
X302500Y923000D03*
Y897600D03*
Y948400D03*
X303500Y1057000D03*
Y1031600D03*
Y1082400D03*
X302500Y1181600D03*
Y1232400D03*
Y1207000D03*
Y1315600D03*
Y1366400D03*
Y1341000D03*
Y1491000D03*
Y1465600D03*
Y1516400D03*
X303500Y1625000D03*
Y1599600D03*
Y1650400D03*
Y1749600D03*
Y1800400D03*
Y1775000D03*
Y1882600D03*
Y1933400D03*
Y1908000D03*
X302500Y2082400D03*
Y2057000D03*
Y2031600D03*
X303500Y2215400D03*
Y2190000D03*
Y2164600D03*
G54D16*
X72500Y1056000D03*
X76500Y1310000D03*
X103500Y1056000D03*
X107500Y1310000D03*
G54D34*
X913900Y248000D03*
Y349600D03*
Y298800D03*
Y400400D03*
Y451200D03*
Y552800D03*
Y502000D03*
Y603600D03*
Y654400D03*
Y705200D03*
Y806800D03*
Y756000D03*
Y857600D03*
Y908400D03*
Y959200D03*
Y1321000D03*
Y1371800D03*
Y1422600D03*
Y1473400D03*
Y1575000D03*
Y1524200D03*
Y1625800D03*
Y1676600D03*
Y1778200D03*
Y1727400D03*
Y1829000D03*
Y1879800D03*
Y1930600D03*
Y2032200D03*
Y1981400D03*
G54D35*
Y1010000D03*
Y2083000D03*
G54D26*
X342300Y36000D03*
Y126000D03*
X340300Y175000D03*
Y265000D03*
X342300Y318000D03*
Y408000D03*
X338300Y457000D03*
Y547000D03*
X340300Y600000D03*
X339300Y740000D03*
X340300Y690000D03*
X339300Y830000D03*
X340300Y883000D03*
Y973000D03*
X339300Y1023000D03*
Y1113000D03*
X340300Y1167000D03*
Y1257000D03*
X338300Y1307000D03*
X340300Y1451000D03*
X338300Y1397000D03*
X340300Y1541000D03*
X339300Y1591000D03*
Y1681000D03*
X341300Y1735000D03*
Y1825000D03*
X339300Y1874000D03*
Y1964000D03*
X340300Y2017000D03*
X339300Y2156000D03*
X340300Y2107000D03*
X339300Y2246000D03*
X367700Y36000D03*
Y126000D03*
X365700Y175000D03*
Y265000D03*
X367700Y318000D03*
Y408000D03*
X363700Y457000D03*
Y547000D03*
X365700Y600000D03*
X364700Y740000D03*
X365700Y690000D03*
X364700Y830000D03*
X365700Y883000D03*
Y973000D03*
X364700Y1023000D03*
Y1113000D03*
X365700Y1167000D03*
Y1257000D03*
X363700Y1307000D03*
X365700Y1451000D03*
X363700Y1397000D03*
X365700Y1541000D03*
X364700Y1591000D03*
Y1681000D03*
X366700Y1735000D03*
Y1825000D03*
X364700Y1874000D03*
Y1964000D03*
X365700Y2017000D03*
X364700Y2156000D03*
X365700Y2107000D03*
X364700Y2246000D03*
G54D17*
X58500Y1096000D03*
X101500D03*
G54D27*
X403000Y39250D03*
X400000Y174250D03*
X403000Y321250D03*
X398000Y456250D03*
X401000Y603250D03*
X399000Y739250D03*
X401000Y886250D03*
X399000Y1022250D03*
X401000Y1170250D03*
X398000Y1306250D03*
X401000Y1454250D03*
X399000Y1590250D03*
X402000Y1738250D03*
X399000Y1873250D03*
X401000Y2020250D03*
X399000Y2155250D03*
X445000Y125750D03*
X435000Y247750D03*
X445000Y407750D03*
X433000Y529750D03*
X443000Y689750D03*
X434000Y812750D03*
X443000Y972750D03*
X434000Y1095750D03*
X443000Y1256750D03*
X433000Y1379750D03*
X443000Y1540750D03*
X434000Y1663750D03*
X444000Y1824750D03*
X434000Y1946750D03*
X443000Y2106750D03*
X434000Y2228750D03*
G54D18*
X49500Y1168000D03*
X68500D03*
X89500Y1354000D03*
X108500D03*
G54D36*
X996800Y53930D03*
Y2276430D03*
G54D37*
G01X33000Y846000D02*
Y118000D01*
X45000Y106000D01*
X57050D01*
G01X89500Y1354000D02*
Y1370740D01*
X93500Y1374740D01*
Y1385500D01*
G01X89800Y1335700D02*
Y1345200D01*
X89500Y1345500D01*
Y1354000D01*
G01X166000Y84500D02*
Y95310D01*
X172090Y101400D01*
X189500D01*
G01X166000Y50600D02*
Y67500D01*
G01X167000Y218500D02*
Y225500D01*
X175900Y234400D01*
X189500D01*
G01X167000Y201500D02*
Y183600D01*
G01X166000Y349500D02*
Y332600D01*
G01Y366500D02*
Y377070D01*
X172090Y383160D01*
X179010D01*
X179250Y383400D01*
X189500D01*
G01X165000Y483500D02*
Y465600D01*
G01Y500500D02*
Y507500D01*
X173900Y516400D01*
X187500D01*
G01X164000Y648500D02*
Y659560D01*
X169860Y665420D01*
X176890D01*
X176910Y665400D01*
X187500D01*
G01X164000Y631500D02*
Y614600D01*
G01X166000Y783500D02*
Y790500D01*
X174900Y799400D01*
X188500D01*
G01X166000Y766500D02*
Y748600D01*
G01X164000Y914500D02*
Y897600D01*
G01Y931500D02*
Y942310D01*
X170090Y948400D01*
X187500D01*
G01X166000Y1049500D02*
Y1031600D01*
G01Y1066500D02*
Y1073500D01*
X174900Y1082400D01*
X188500D01*
G01X164000Y1198500D02*
Y1182690D01*
X165090Y1181600D01*
G01X164000Y1215500D02*
Y1226070D01*
X170090Y1232160D01*
X177010D01*
X177250Y1232400D01*
X187500D01*
G01X165000Y1350500D02*
Y1357500D01*
X173900Y1366400D01*
X187500D01*
G01X165000Y1333500D02*
Y1315600D01*
G01X164000Y1499500D02*
Y1510310D01*
X170090Y1516400D01*
X187500D01*
G01X164000Y1482500D02*
Y1465500D01*
G01X166000Y1634500D02*
Y1641500D01*
X174900Y1650400D01*
X188500D01*
G01X166000Y1617500D02*
Y1599600D01*
G01X165000Y1766500D02*
Y1749600D01*
G01Y1783500D02*
Y1794070D01*
X171090Y1800160D01*
X178010D01*
X178250Y1800400D01*
X188500D01*
G01X166000Y1900500D02*
Y1882600D01*
G01Y1917500D02*
Y1924500D01*
X174900Y1933400D01*
X188500D01*
G01X164000Y2065500D02*
Y2075240D01*
X170320Y2081560D01*
X176410D01*
X177250Y2082400D01*
X187500D01*
G01X164000Y2048500D02*
Y2033000D01*
X166000Y2031000D01*
G01X165980Y2215000D02*
X166000Y2214980D01*
Y2199500D01*
G01Y2182500D02*
Y2165000D01*
G54D28*
X403000Y76750D03*
X400000Y211750D03*
X403000Y358750D03*
X398000Y493750D03*
X401000Y640750D03*
X399000Y776750D03*
X401000Y923750D03*
X399000Y1059750D03*
X401000Y1207750D03*
X398000Y1343750D03*
X401000Y1491750D03*
X399000Y1627750D03*
X402000Y1775750D03*
X399000Y1910750D03*
X401000Y2057750D03*
X399000Y2192750D03*
X445000Y88250D03*
X435000Y210250D03*
X445000Y370250D03*
X433000Y492250D03*
X443000Y652250D03*
X434000Y775250D03*
X443000Y935250D03*
X434000Y1058250D03*
X443000Y1219250D03*
X433000Y1342250D03*
X443000Y1503250D03*
X434000Y1626250D03*
X444000Y1787250D03*
X434000Y1909250D03*
X443000Y2069250D03*
X434000Y2191250D03*
G54D19*
X52000Y1147500D03*
Y1128500D03*
X478000Y38500D03*
Y57500D03*
Y166500D03*
Y185500D03*
Y320500D03*
Y339500D03*
X476000Y448500D03*
Y467500D03*
Y602500D03*
Y621500D03*
X477000Y731500D03*
Y750500D03*
X476000Y885500D03*
Y904500D03*
X477000Y1014500D03*
Y1033500D03*
X476000Y1169500D03*
Y1188500D03*
Y1298500D03*
Y1317500D03*
Y1453500D03*
Y1472500D03*
X477000Y1582500D03*
Y1601500D03*
Y1737500D03*
Y1756500D03*
Y1865500D03*
Y1884500D03*
X476000Y2019500D03*
Y2038500D03*
X477000Y2147500D03*
Y2166500D03*
G54D38*
G01X344000Y56000D02*
Y93000D01*
X315000Y122000D01*
G01X324000Y52000D02*
X316650D01*
X315250Y50600D01*
X304500D01*
G01X342300Y36000D02*
Y39250D01*
X335580Y45970D01*
X330030D01*
X324000Y52000D01*
G01X304500Y101400D02*
Y111500D01*
X315000Y122000D01*
G01X342300Y126000D02*
Y129250D01*
X332550Y139000D01*
X324000D01*
G01X339000Y201000D02*
Y229100D01*
X319100Y249000D01*
X309600D01*
G01X340300Y175000D02*
X331200D01*
X322600Y183600D01*
G01X304500D02*
X322600D01*
G01X304500Y234400D02*
Y243900D01*
X309600Y249000D01*
G01X323000Y265000D02*
X340300D01*
G01X344000Y338000D02*
Y375000D01*
X315000Y404000D01*
G01X324000Y334000D02*
X316650D01*
X315250Y332600D01*
X304500D01*
G01X342300Y318000D02*
Y321250D01*
X335580Y327970D01*
X330030D01*
X324000Y334000D01*
G01X304500Y383400D02*
Y393500D01*
X315000Y404000D01*
G01X342300Y408000D02*
Y411250D01*
X332550Y421000D01*
X324000D01*
G01X338300Y457000D02*
X329200D01*
X320600Y465600D01*
G01X302500D02*
X320600D01*
G01X302500Y516400D02*
Y525900D01*
X307600Y531000D01*
G01X337000Y483000D02*
Y511100D01*
X317100Y531000D01*
X307600D01*
G01X321000Y547000D02*
X338300D01*
G01X340300Y600000D02*
Y603250D01*
X333580Y609970D01*
X328030D01*
X322000Y616000D01*
G01X302500Y665400D02*
Y675500D01*
X313000Y686000D01*
G01X342000Y620000D02*
Y657000D01*
X313000Y686000D01*
G01X322000Y616000D02*
X314650D01*
X313250Y614600D01*
X302500D01*
G01X340300Y690000D02*
Y693250D01*
X330550Y703000D01*
X322000D01*
G01X303500Y799400D02*
Y808900D01*
X308600Y814000D01*
G01X338000Y766000D02*
Y794100D01*
X318100Y814000D01*
X308600D01*
G01X339300Y740000D02*
X330200D01*
X321600Y748600D01*
G01X303500D02*
X321600D01*
G01X322000Y830000D02*
X339300D01*
G01X342000Y903000D02*
Y940000D01*
X313000Y969000D01*
G01X322000Y899000D02*
X314650D01*
X313250Y897600D01*
X302500D01*
G01X340300Y883000D02*
Y886250D01*
X333580Y892970D01*
X328030D01*
X322000Y899000D01*
G01X302500Y948400D02*
Y958500D01*
X313000Y969000D01*
G01X340300Y973000D02*
Y976250D01*
X330550Y986000D01*
X322000D01*
G01X339300Y1023000D02*
X330200D01*
X321600Y1031600D01*
G01X303500D02*
X321600D01*
G01X338000Y1049000D02*
Y1077100D01*
X318100Y1097000D01*
X308600D01*
G01X322000Y1113000D02*
X339300D01*
G01X303500Y1082400D02*
Y1091900D01*
X308600Y1097000D01*
G01X342000Y1187000D02*
Y1224000D01*
X313000Y1253000D01*
G01X322000Y1183000D02*
X314650D01*
X313250Y1181600D01*
X302500D01*
G01X340300Y1167000D02*
Y1170250D01*
X333580Y1176970D01*
X328030D01*
X322000Y1183000D01*
G01X302500Y1232400D02*
Y1242500D01*
X313000Y1253000D01*
G01X338300Y1307000D02*
X329200D01*
X320600Y1315600D01*
G01X302500D02*
X320600D01*
G01X340300Y1257000D02*
Y1260250D01*
X330550Y1270000D01*
X322000D01*
G01X302500Y1366400D02*
Y1375900D01*
X307600Y1381000D01*
G01X337000Y1333000D02*
Y1361100D01*
X317100Y1381000D01*
X307600D01*
G01X321000Y1397000D02*
X338300D01*
G01X342000Y1471000D02*
Y1508000D01*
X313000Y1537000D01*
G01X322000Y1467000D02*
X314650D01*
X313250Y1465600D01*
X302500D01*
G01X340300Y1451000D02*
Y1454250D01*
X333580Y1460970D01*
X328030D01*
X322000Y1467000D01*
G01X302500Y1516400D02*
Y1526500D01*
X313000Y1537000D01*
G01X340300Y1541000D02*
Y1544250D01*
X330550Y1554000D01*
X322000D01*
G01X338000Y1617000D02*
Y1645100D01*
X318100Y1665000D01*
X308600D01*
G01X339300Y1591000D02*
X330200D01*
X321600Y1599600D01*
G01X303500D02*
X321600D01*
G01X303500Y1650400D02*
Y1659900D01*
X308600Y1665000D01*
G01X322000Y1681000D02*
X339300D01*
G01X343000Y1755000D02*
Y1792000D01*
X314000Y1821000D01*
G01X323000Y1751000D02*
X315650D01*
X314250Y1749600D01*
X303500D01*
G01X341300Y1735000D02*
Y1738250D01*
X334580Y1744970D01*
X329030D01*
X323000Y1751000D01*
G01X303500Y1800400D02*
Y1810500D01*
X314000Y1821000D01*
G01X341300Y1825000D02*
Y1828250D01*
X331550Y1838000D01*
X323000D01*
G01X339300Y1874000D02*
X330200D01*
X321600Y1882600D01*
G01X303500D02*
X321600D01*
G01X303500Y1933400D02*
Y1942900D01*
X308600Y1948000D01*
G01X338000Y1900000D02*
Y1928100D01*
X318100Y1948000D01*
X308600D01*
G01X340300Y2017000D02*
Y2020250D01*
X333580Y2026970D01*
X328030D01*
X322000Y2033000D01*
G01Y1964000D02*
X339300D01*
G01X302500Y2082400D02*
Y2092500D01*
X313000Y2103000D01*
G01X342000Y2037000D02*
Y2074000D01*
X313000Y2103000D01*
G01X322000Y2033000D02*
X314650D01*
X313250Y2031600D01*
X302500D01*
G01X340300Y2107000D02*
Y2110250D01*
X330550Y2120000D01*
X322000D01*
G01X339300Y2156000D02*
X330200D01*
X321600Y2164600D01*
G01X303500D02*
X321600D01*
G01X303500Y2215400D02*
Y2224900D01*
X308600Y2230000D01*
G01X338000Y2182000D02*
Y2210100D01*
X318100Y2230000D01*
X308600D01*
G01X322000Y2246000D02*
X339300D01*
G01X367700Y126000D02*
Y112050D01*
X403000Y76750D01*
G01X367700Y36000D02*
Y48750D01*
X376950Y58000D01*
X385000D01*
G01X365700Y265000D02*
Y246050D01*
X400000Y211750D01*
G01X365700Y175000D02*
Y178250D01*
X378450Y191000D01*
X380000D01*
G01X367700Y318000D02*
Y330750D01*
X376950Y340000D01*
X385000D01*
G01X367700Y408000D02*
Y394050D01*
X403000Y358750D01*
G01X363700Y457000D02*
Y460250D01*
X376450Y473000D01*
X378000D01*
G01X363700Y547000D02*
Y528050D01*
X398000Y493750D01*
G01X365700Y600000D02*
Y612750D01*
X374950Y622000D01*
X383000D01*
G01X365700Y690000D02*
Y676050D01*
X401000Y640750D01*
G01X364700Y830000D02*
Y811050D01*
X399000Y776750D01*
G01X364700Y740000D02*
Y743250D01*
X377450Y756000D01*
X379000D01*
G01X365700Y883000D02*
Y895750D01*
X374950Y905000D01*
X383000D01*
G01X365700Y973000D02*
Y959050D01*
X401000Y923750D01*
G01X364700Y1023000D02*
Y1026250D01*
X377450Y1039000D01*
X379000D01*
G01X364700Y1113000D02*
Y1094050D01*
X399000Y1059750D01*
G01X365700Y1167000D02*
Y1179750D01*
X374950Y1189000D01*
X383000D01*
G01X365700Y1257000D02*
Y1243050D01*
X401000Y1207750D01*
G01X363700Y1307000D02*
Y1310250D01*
X376450Y1323000D01*
X378000D01*
G01X363700Y1397000D02*
Y1378050D01*
X398000Y1343750D01*
G01X365700Y1541000D02*
Y1527050D01*
X401000Y1491750D01*
G01X365700Y1451000D02*
Y1463750D01*
X374950Y1473000D01*
X383000D01*
G01X364700Y1681000D02*
Y1662050D01*
X399000Y1627750D01*
G01X364700Y1591000D02*
Y1594250D01*
X377450Y1607000D01*
X379000D01*
G01X366700Y1735000D02*
Y1747750D01*
X375950Y1757000D01*
X384000D01*
G01X366700Y1825000D02*
Y1811050D01*
X402000Y1775750D01*
G01X364700Y1874000D02*
Y1877250D01*
X377450Y1890000D01*
X379000D01*
G01X364700Y1964000D02*
Y1945050D01*
X399000Y1910750D01*
G01X365700Y2017000D02*
Y2029750D01*
X374950Y2039000D01*
X383000D01*
G01X365700Y2107000D02*
Y2093050D01*
X401000Y2057750D01*
G01X364700Y2246000D02*
Y2227050D01*
X399000Y2192750D01*
G01X364700Y2156000D02*
Y2159250D01*
X377450Y2172000D01*
X379000D01*
G54D29*
X431500Y47000D03*
X454500Y56500D03*
Y37500D03*
X432500Y176000D03*
X455500Y185500D03*
Y166500D03*
X431500Y329000D03*
X454500Y338500D03*
Y319500D03*
X430500Y458000D03*
X453500Y467500D03*
Y448500D03*
X452500Y601500D03*
X429500Y611000D03*
X452500Y620500D03*
X454500Y731500D03*
X431500Y741000D03*
X454500Y750500D03*
X429500Y894000D03*
X452500Y903500D03*
Y884500D03*
X431500Y1024000D03*
X454500Y1033500D03*
Y1014500D03*
X429500Y1178000D03*
X452500Y1187500D03*
Y1168500D03*
X430500Y1308000D03*
X453500Y1317500D03*
Y1298500D03*
X429500Y1462000D03*
X452500Y1471500D03*
Y1452500D03*
X431500Y1592000D03*
X454500Y1601500D03*
Y1582500D03*
X430500Y1746000D03*
X453500Y1755500D03*
Y1736500D03*
X431500Y1875000D03*
X454500Y1884500D03*
Y1865500D03*
X452500Y2018500D03*
X429500Y2028000D03*
X452500Y2037500D03*
X454500Y2147500D03*
X431500Y2157000D03*
X454500Y2166500D03*
G54D39*
G01X30000Y1027300D02*
X40770Y1016530D01*
G01X30000Y1027300D02*
X40770Y1038070D01*
G01X30000Y1052700D02*
X39790Y1042910D01*
G01X30000Y1052700D02*
X39790Y1062490D01*
G01X82450Y95230D02*
Y106000D01*
G01D02*
Y116770D01*
G01X71680Y106000D02*
X82450D01*
G01D02*
X93220D01*
G01X47430Y858380D02*
X57050Y868000D01*
G01X47430Y877620D02*
X57050Y868000D01*
G01X46280D02*
X57050D01*
G01X85500Y991980D02*
Y1002000D01*
G01X30000Y1027300D02*
X40770D01*
G01X30000Y1052700D02*
X41020D01*
G01X63980Y1056000D02*
X72500D01*
G01D02*
Y1072520D01*
G01Y1039480D02*
Y1056000D01*
G01X76980Y1025000D02*
X85500D01*
G01Y1014980D02*
Y1025000D01*
G01X76980Y1002000D02*
X85500D01*
G01D02*
Y1012020D01*
G01X58500Y1096000D02*
X71770D01*
G01X45230D02*
X58500D01*
G01D02*
Y1109270D01*
G01Y1082730D02*
Y1096000D01*
G01X82500Y1122980D02*
Y1133000D01*
G01X52000Y1120730D02*
Y1128500D01*
G01X73980Y1133000D02*
X82500D01*
G01D02*
Y1143020D01*
G01X52000Y1128500D02*
X62020D01*
G01X41980D02*
X52000D01*
M02*
